M48
;DRILL file {KiCad 4.0.6} date 09/22/17 08:59:29
;FORMAT={-:-/ absolute / metric / decimal}
FMAT,2
METRIC,TZ
T1C0.600
T2C0.800
T3C1.000
T4C1.200
T5C4.000
%
G90
G05
M71
T1
X82.64Y-103.93
X82.66Y-106.55
X82.69Y-104.86
X82.74Y-105.64
X87.84Y-74.22
X88.16Y-73.42
X88.61Y-74.3
X88.92Y-73.42
X89.37Y-74.3
X89.69Y-73.48
X90.15Y-74.3
X92.16Y-106.36
X92.47Y-105.52
X92.777Y-90.686
X92.85Y-89.9
X92.97Y-106.44
X93.37Y-105.58
X93.597Y-90.317
X93.636Y-89.477
X93.82Y-106.4
X94.29Y-105.76
X94.79Y-106.48
X95.4Y-114.4
X96.374Y-114.406
X97.75Y-92.75
X97.75Y-93.75
X107.05Y-104.59
X107.58Y-103.76
X108.01Y-104.61
X108.44Y-103.82
X108.92Y-104.64
X109.2Y-114.4
X109.32Y-103.85
X109.78Y-104.64
X110.11Y-103.98
X110.143Y-114.413
X110.73Y-104.59
X114.79Y-84.611
X115.597Y-97.613
X115.625Y-85.091
X115.671Y-84.176
X115.733Y-96.668
X116.41Y-97.18
X116.433Y-85.079
X116.484Y-84.195
X116.49Y-96.356
X117.151Y-96.885
X117.456Y-96.308
X123.Y-114.4
X123.911Y-78.767
X123.923Y-114.452
X124.29Y-77.88
X124.798Y-78.754
X125.227Y-77.929
X125.726Y-78.809
X126.121Y-77.963
X126.655Y-78.809
X127.085Y-77.95
X127.598Y-78.74
X128.09Y-77.943
X129.27Y-71.32
X130.15Y-70.5
X130.49Y-71.43
X131.02Y-69.83
X131.18Y-70.75
X131.356Y-113.51
X131.366Y-114.4
X131.68Y-69.15
X131.95Y-70.
X132.69Y-69.32
X133.14Y-90.8
X134.5Y-107.23
X134.9Y-106.47
X135.35Y-107.23
X136.766Y-114.4
X137.613Y-114.437
X137.74Y-90.8
X137.75Y-89.83
X137.78Y-89.04
X141.49Y-77.88
X142.56Y-77.88
X144.198Y-93.337
X144.88Y-93.82
X144.946Y-93.054
X149.21Y-92.64
X149.86Y-80.02
X149.89Y-75.31
X150.554Y-114.4
X151.481Y-114.395
X154.507Y-80.722
X154.52Y-87.03
X155.44Y-95.32
X157.96Y-87.63
X158.55Y-92.34
X159.1Y-88.98
X159.47Y-90.73
X160.738Y-83.114
X161.069Y-93.029
X161.941Y-84.58
X162.298Y-82.963
X163.437Y-90.357
X164.343Y-114.4
X164.79Y-104.4
X164.942Y-94.427
X165.238Y-114.424
X165.63Y-104.5
X166.531Y-90.909
X168.045Y-90.307
X169.391Y-94.813
X169.93Y-85.1
X170.03Y-84.18
X170.32Y-81.9
X170.46Y-80.22
X172.056Y-99.57
X172.118Y-94.764
X173.71Y-91.48
X175.342Y-96.678
X176.75Y-86.63
X176.899Y-92.972
X177.137Y-98.977
X177.34Y-86.97
X177.999Y-87.571
X178.03Y-81.81
X178.131Y-114.4
X179.032Y-114.408
X179.75Y-95.12
X179.75Y-96.02
X179.83Y-83.64
X184.55Y-66.74
X184.94Y-65.9
X185.3Y-66.74
X185.72Y-65.86
X186.12Y-66.74
X186.59Y-65.86
X187.03Y-66.74
X187.43Y-65.82
X187.82Y-66.74
X188.54Y-87.57
X190.34Y-87.01
X191.92Y-114.4
X192.49Y-71.61
X192.7Y-74.46
X192.9Y-114.393
T2
X145.86Y-68.87
X145.86Y-70.87
X147.86Y-68.87
X147.86Y-70.87
X149.86Y-68.87
X149.86Y-70.87
X151.86Y-68.87
X151.86Y-70.87
X153.86Y-68.87
X153.86Y-70.87
X155.86Y-68.87
X155.86Y-70.87
X157.86Y-68.87
X157.86Y-70.87
X159.86Y-68.87
X159.86Y-70.87
X161.86Y-68.87
X161.86Y-70.87
X163.86Y-68.87
X163.86Y-70.87
T3
X88.68Y-119.33
X88.68Y-129.49
X88.68Y-132.03
X96.3Y-119.33
X96.3Y-129.49
X96.3Y-132.03
X102.537Y-119.33
X102.537Y-129.49
X102.537Y-132.03
X110.157Y-119.33
X110.157Y-129.49
X110.157Y-132.03
X116.394Y-119.33
X116.394Y-129.49
X116.394Y-132.03
X124.014Y-119.33
X124.014Y-129.49
X124.014Y-132.03
X130.251Y-119.33
X130.251Y-129.49
X130.251Y-132.03
X137.871Y-119.33
X137.871Y-129.49
X137.871Y-132.03
X144.109Y-119.33
X144.109Y-129.49
X144.109Y-132.03
X144.88Y-83.29
X144.88Y-85.83
X144.88Y-88.37
X144.88Y-90.91
X151.729Y-119.33
X151.729Y-129.49
X151.729Y-132.03
X157.966Y-119.33
X157.966Y-129.49
X157.966Y-132.03
X165.586Y-119.33
X165.586Y-129.49
X165.586Y-132.03
X171.823Y-119.33
X171.823Y-129.49
X171.823Y-132.03
X179.443Y-119.33
X179.443Y-129.49
X179.443Y-132.03
X185.68Y-119.33
X185.68Y-129.49
X185.68Y-132.03
X193.3Y-119.33
X193.3Y-129.49
X193.3Y-132.03
T4
X102.83Y-143.4
X107.91Y-143.4
X112.99Y-143.4
X116.71Y-69.2
X118.07Y-143.4
X121.79Y-69.2
X123.15Y-143.4
X128.23Y-143.4
X133.31Y-143.4
X138.39Y-143.4
X143.47Y-143.4
X148.55Y-143.4
X153.63Y-143.4
X158.71Y-143.4
X163.79Y-143.4
X168.87Y-143.4
X173.95Y-143.4
X179.03Y-143.4
T5
X83.Y-146.
X84.Y-67.
X198.Y-146.
X199.Y-66.
T3
X100.05Y-73.3G85X100.05Y-75.3
G05
X105.75Y-71.3G85X103.75Y-71.3
G05
X105.75Y-77.3G85X103.75Y-77.3
G05
T0
M30
