G04 #@! TF.FileFunction,Soldermask,Top*
%FSLAX46Y46*%
G04 Gerber Fmt 4.6, Leading zero omitted, Abs format (unit mm)*
G04 Created by KiCad (PCBNEW 4.0.6) date 09/22/17 08:59:26*
%MOMM*%
%LPD*%
G01*
G04 APERTURE LIST*
%ADD10C,0.100000*%
%ADD11C,1.000000*%
%ADD12O,2.224000X1.724000*%
%ADD13O,2.224000X1.524000*%
%ADD14O,2.224000X1.624000*%
%ADD15O,2.222400X1.624000*%
%ADD16R,1.200000X0.600000*%
%ADD17R,0.600000X1.200000*%
%ADD18C,4.000000*%
%ADD19R,1.250000X1.500000*%
%ADD20R,1.500000X1.250000*%
%ADD21R,2.000000X1.600000*%
%ADD22R,2.500000X4.000000*%
%ADD23R,4.500000X2.500000*%
%ADD24R,3.500000X2.300000*%
%ADD25R,1.500000X1.300000*%
%ADD26R,3.500000X3.500000*%
%ADD27R,2.624000X6.000000*%
%ADD28R,0.760000X2.000000*%
%ADD29R,2.000000X0.760000*%
%ADD30O,3.250000X0.950000*%
%ADD31R,1.300000X1.500000*%
%ADD32R,0.600000X2.000000*%
%ADD33R,0.600000X1.550000*%
%ADD34R,2.524000X1.824000*%
%ADD35O,2.524000X1.824000*%
%ADD36O,2.500000X3.000000*%
%ADD37O,2.624000X3.724000*%
%ADD38R,2.624000X3.724000*%
%ADD39R,1.600000X3.500000*%
%ADD40R,2.000000X1.700000*%
%ADD41R,3.800000X2.000000*%
%ADD42R,1.500000X2.000000*%
%ADD43R,1.400000X1.524000*%
%ADD44O,1.400000X1.524000*%
G04 APERTURE END LIST*
D10*
D11*
X193170000Y-139070000D02*
X193320000Y-131950000D01*
X188960000Y-143380000D02*
X193170000Y-139070000D01*
X179320000Y-143330000D02*
X188960000Y-143380000D01*
X179220000Y-136080000D02*
X179510000Y-132320000D01*
X177360000Y-137680000D02*
X179220000Y-136080000D01*
X170950000Y-137780000D02*
X177360000Y-137680000D01*
X168730000Y-140100000D02*
X170950000Y-137780000D01*
X168760000Y-143370000D02*
X168730000Y-140100000D01*
X165440000Y-136060000D02*
X165600000Y-131980000D01*
X164030000Y-137370000D02*
X165440000Y-136060000D01*
X159890000Y-137470000D02*
X164030000Y-137370000D01*
X158650000Y-138740000D02*
X159890000Y-137470000D01*
X158740000Y-143520000D02*
X158650000Y-138740000D01*
X148570000Y-135320000D02*
X151440000Y-132230000D01*
X148600000Y-142800000D02*
X148570000Y-135320000D01*
X138420000Y-133930000D02*
X137940000Y-131930000D01*
X138420000Y-143160000D02*
X138420000Y-133930000D01*
X128130000Y-139740000D02*
X128250000Y-143140000D01*
X124060000Y-135620000D02*
X128130000Y-139740000D01*
X124000000Y-131980000D02*
X124060000Y-135620000D01*
X118060000Y-139220000D02*
X118000000Y-142980000D01*
X115880000Y-137400000D02*
X118060000Y-139220000D01*
X112240000Y-137340000D02*
X115880000Y-137400000D01*
X109990000Y-134800000D02*
X112240000Y-137340000D01*
X110060000Y-132070000D02*
X109990000Y-134800000D01*
X107930000Y-139340000D02*
X107990000Y-142740000D01*
X104170000Y-135950000D02*
X107930000Y-139340000D01*
X97560000Y-135890000D02*
X104170000Y-135950000D01*
X96230000Y-134610000D02*
X97560000Y-135890000D01*
X96170000Y-131940000D02*
X96230000Y-134610000D01*
D12*
X165585710Y-119330000D03*
X157965710Y-119330000D03*
D13*
X165585710Y-129490000D03*
X157965710Y-129490000D03*
D14*
X165585710Y-132030000D03*
D15*
X157965710Y-132030000D03*
D16*
X156460000Y-87440000D03*
X156460000Y-88240000D03*
X156460000Y-89040000D03*
X156460000Y-89840000D03*
X156460000Y-90640000D03*
X156460000Y-91440000D03*
X156460000Y-92240000D03*
X156460000Y-93040000D03*
D17*
X157910000Y-94490000D03*
X158710000Y-94490000D03*
X159510000Y-94490000D03*
X160310000Y-94490000D03*
X161110000Y-94490000D03*
X161910000Y-94490000D03*
X162710000Y-94490000D03*
X163510000Y-94490000D03*
D16*
X164960000Y-93040000D03*
X164960000Y-92240000D03*
X164960000Y-91440000D03*
X164960000Y-90640000D03*
X164960000Y-89840000D03*
X164960000Y-89040000D03*
X164960000Y-88240000D03*
X164960000Y-87440000D03*
D17*
X163510000Y-85990000D03*
X162710000Y-85990000D03*
X161910000Y-85990000D03*
X161110000Y-85990000D03*
X160310000Y-85990000D03*
X159510000Y-85990000D03*
X158710000Y-85990000D03*
X157910000Y-85990000D03*
D18*
X84000000Y-67000000D03*
X83000000Y-146000000D03*
X199000000Y-66000000D03*
X198000000Y-146000000D03*
D19*
X152750000Y-85330000D03*
X152750000Y-87830000D03*
D20*
X145920000Y-75340000D03*
X143420000Y-75340000D03*
D21*
X153210000Y-92640000D03*
X149210000Y-92640000D03*
D20*
X152430000Y-90340000D03*
X149930000Y-90340000D03*
D19*
X130450000Y-84750000D03*
X130450000Y-87250000D03*
D22*
X123760000Y-84330000D03*
X123760000Y-90430000D03*
D20*
X103500000Y-84300000D03*
X101000000Y-84300000D03*
D19*
X149860000Y-87830000D03*
X149860000Y-85330000D03*
D20*
X176720000Y-74510000D03*
X174220000Y-74510000D03*
X179513333Y-74510000D03*
X182013333Y-74510000D03*
X87900000Y-96900000D03*
X90400000Y-96900000D03*
D23*
X85850000Y-89900000D03*
X92850000Y-89900000D03*
D19*
X179740000Y-95670000D03*
X179740000Y-98170000D03*
D24*
X186519997Y-114400000D03*
X191919997Y-114400000D03*
X172731426Y-114400000D03*
X178131426Y-114400000D03*
X158942855Y-114400000D03*
X164342855Y-114400000D03*
X145154284Y-114400000D03*
X150554284Y-114400000D03*
X131365713Y-114400000D03*
X136765713Y-114400000D03*
X90000000Y-114400000D03*
X95400000Y-114400000D03*
X117577142Y-114400000D03*
X122977142Y-114400000D03*
X103788571Y-114400000D03*
X109188571Y-114400000D03*
D25*
X149890000Y-75310000D03*
X152590000Y-75310000D03*
D24*
X110950000Y-91800000D03*
X116350000Y-91800000D03*
X86250000Y-81400000D03*
X91650000Y-81400000D03*
D25*
X184550000Y-71630000D03*
X187250000Y-71630000D03*
X184706666Y-74460000D03*
X187406666Y-74460000D03*
D26*
X104750000Y-77300000D03*
X104750000Y-71300000D03*
X100050000Y-74300000D03*
D27*
X115550000Y-84600000D03*
X111150000Y-84600000D03*
D28*
X193250000Y-77650000D03*
X191750000Y-77650000D03*
X190250000Y-77650000D03*
X188750000Y-77650000D03*
X187250000Y-77650000D03*
X185750000Y-77650000D03*
X184250000Y-77650000D03*
X182750000Y-77650000D03*
X181250000Y-77650000D03*
X179750000Y-77650000D03*
X178250000Y-77650000D03*
X176750000Y-77650000D03*
X175250000Y-77650000D03*
D29*
X173450000Y-78750000D03*
X173450000Y-80250000D03*
X173450000Y-81750000D03*
X173450000Y-83250000D03*
X173450000Y-84750000D03*
X173450000Y-86250000D03*
X173450000Y-87750000D03*
X173450000Y-89250000D03*
D28*
X175250000Y-90350000D03*
X176750000Y-90350000D03*
X178250000Y-90350000D03*
X179750000Y-90350000D03*
X181250000Y-90350000D03*
X182750000Y-90350000D03*
X184250000Y-90350000D03*
X185750000Y-90350000D03*
X187250000Y-90350000D03*
X188750000Y-90350000D03*
X190250000Y-90350000D03*
X191750000Y-90350000D03*
X193250000Y-90350000D03*
D30*
X183500000Y-100370000D03*
X183500000Y-101640000D03*
X183500000Y-96560000D03*
X183550000Y-97830000D03*
X183500000Y-99100000D03*
X183500000Y-102910000D03*
X183500000Y-104180000D03*
X183500000Y-105450000D03*
D31*
X152820000Y-80020000D03*
X152820000Y-82720000D03*
X149860000Y-82720000D03*
X149860000Y-80020000D03*
X97750000Y-90050000D03*
X97750000Y-92750000D03*
X97750000Y-84450000D03*
X97750000Y-87150000D03*
D25*
X179390000Y-71670000D03*
X182090000Y-71670000D03*
X183980000Y-93160000D03*
X186680000Y-93160000D03*
X190260000Y-93160000D03*
X192960000Y-93160000D03*
X189790000Y-71610000D03*
X192490000Y-71610000D03*
X189999999Y-74460000D03*
X192699999Y-74460000D03*
D32*
X146600000Y-97800000D03*
X145330000Y-97800000D03*
X144060000Y-97800000D03*
X142790000Y-97800000D03*
X141520000Y-97800000D03*
X140250000Y-97800000D03*
X138980000Y-97800000D03*
X137710000Y-97800000D03*
X136440000Y-97800000D03*
X136440000Y-107200000D03*
X137710000Y-107200000D03*
X138980000Y-107200000D03*
X140250000Y-107200000D03*
X141520000Y-107200000D03*
X142790000Y-107200000D03*
X144060000Y-107200000D03*
X145330000Y-107200000D03*
X146600000Y-107200000D03*
D33*
X105455000Y-87100000D03*
X104185000Y-87100000D03*
X102915000Y-87100000D03*
X101645000Y-87100000D03*
X101645000Y-92500000D03*
X102915000Y-92500000D03*
X104185000Y-92500000D03*
X105455000Y-92500000D03*
D12*
X193299994Y-119330000D03*
X185679994Y-119330000D03*
D13*
X193299994Y-129490000D03*
X185679994Y-129490000D03*
D14*
X193299994Y-132030000D03*
D15*
X185679994Y-132030000D03*
D12*
X179442852Y-119330000D03*
X171822852Y-119330000D03*
D13*
X179442852Y-129490000D03*
X171822852Y-129490000D03*
D14*
X179442852Y-132030000D03*
D15*
X171822852Y-132030000D03*
D12*
X151728568Y-119330000D03*
X144108568Y-119330000D03*
D13*
X151728568Y-129490000D03*
X144108568Y-129490000D03*
D14*
X151728568Y-132030000D03*
D15*
X144108568Y-132030000D03*
D12*
X137871426Y-119330000D03*
X130251426Y-119330000D03*
D13*
X137871426Y-129490000D03*
X130251426Y-129490000D03*
D14*
X137871426Y-132030000D03*
D15*
X130251426Y-132030000D03*
D12*
X96300000Y-119330000D03*
X88680000Y-119330000D03*
D13*
X96300000Y-129490000D03*
X88680000Y-129490000D03*
D14*
X96300000Y-132030000D03*
D15*
X88680000Y-132030000D03*
D12*
X124014284Y-119330000D03*
X116394284Y-119330000D03*
D13*
X124014284Y-129490000D03*
X116394284Y-129490000D03*
D14*
X124014284Y-132030000D03*
D15*
X116394284Y-132030000D03*
D12*
X110157142Y-119330000D03*
X102537142Y-119330000D03*
D13*
X110157142Y-129490000D03*
X102537142Y-129490000D03*
D14*
X110157142Y-132030000D03*
D15*
X102537142Y-132030000D03*
D34*
X144880000Y-90910000D03*
D35*
X144880000Y-88370000D03*
X144880000Y-85830000D03*
X144880000Y-83290000D03*
D36*
X116710000Y-69200000D03*
X121790000Y-69200000D03*
D37*
X138390000Y-143400000D03*
X133310000Y-143400000D03*
X128230000Y-143400000D03*
D38*
X123150000Y-143400000D03*
D37*
X118070000Y-143400000D03*
X112990000Y-143400000D03*
X107910000Y-143400000D03*
D38*
X102830000Y-143400000D03*
D37*
X179030000Y-143400000D03*
X173950000Y-143400000D03*
X168870000Y-143400000D03*
D38*
X163790000Y-143400000D03*
D37*
X158710000Y-143400000D03*
X153630000Y-143400000D03*
X148550000Y-143400000D03*
D38*
X143470000Y-143400000D03*
D19*
X130320000Y-97760000D03*
X130320000Y-100260000D03*
D39*
X124330000Y-95870000D03*
X124330000Y-101670000D03*
D40*
X101740000Y-95750000D03*
X105740000Y-95750000D03*
D41*
X135440000Y-84500000D03*
D42*
X135440000Y-90800000D03*
X137740000Y-90800000D03*
X133140000Y-90800000D03*
D43*
X145860000Y-70870000D03*
D44*
X145860000Y-68870000D03*
X147860000Y-70870000D03*
X147860000Y-68870000D03*
X149860000Y-70870000D03*
X149860000Y-68870000D03*
X151860000Y-70870000D03*
X151860000Y-68870000D03*
X153860000Y-70870000D03*
X153860000Y-68870000D03*
X155860000Y-70870000D03*
X155860000Y-68870000D03*
X157860000Y-70870000D03*
X157860000Y-68870000D03*
X159860000Y-70870000D03*
X159860000Y-68870000D03*
X161860000Y-70870000D03*
X161860000Y-68870000D03*
X163860000Y-70870000D03*
X163860000Y-68870000D03*
D21*
X146560000Y-77880000D03*
X142560000Y-77880000D03*
D19*
X133400000Y-104340000D03*
X133400000Y-101840000D03*
M02*
