G04 #@! TF.FileFunction,Copper,L1,Top,Signal*
%FSLAX46Y46*%
G04 Gerber Fmt 4.6, Leading zero omitted, Abs format (unit mm)*
G04 Created by KiCad (PCBNEW 4.0.6) date 09/22/17 08:59:26*
%MOMM*%
%LPD*%
G01*
G04 APERTURE LIST*
%ADD10C,0.100000*%
%ADD11O,2.224000X1.724000*%
%ADD12O,2.224000X1.524000*%
%ADD13O,2.224000X1.624000*%
%ADD14O,2.222400X1.624000*%
%ADD15R,1.200000X0.600000*%
%ADD16R,0.600000X1.200000*%
%ADD17C,4.000000*%
%ADD18R,1.250000X1.500000*%
%ADD19R,1.500000X1.250000*%
%ADD20R,2.000000X1.600000*%
%ADD21R,2.500000X4.000000*%
%ADD22R,4.500000X2.500000*%
%ADD23R,3.500000X2.300000*%
%ADD24R,1.500000X1.300000*%
%ADD25R,3.500000X3.500000*%
%ADD26R,2.624000X6.000000*%
%ADD27R,0.760000X2.000000*%
%ADD28R,2.000000X0.760000*%
%ADD29O,3.250000X0.950000*%
%ADD30R,1.300000X1.500000*%
%ADD31R,0.600000X2.000000*%
%ADD32R,0.600000X1.550000*%
%ADD33R,2.524000X1.824000*%
%ADD34O,2.524000X1.824000*%
%ADD35O,2.500000X3.000000*%
%ADD36O,2.624000X3.724000*%
%ADD37R,2.624000X3.724000*%
%ADD38R,1.600000X3.500000*%
%ADD39R,2.000000X1.700000*%
%ADD40R,3.800000X2.000000*%
%ADD41R,1.500000X2.000000*%
%ADD42R,1.400000X1.524000*%
%ADD43O,1.400000X1.524000*%
%ADD44C,1.100000*%
%ADD45C,0.400000*%
%ADD46C,1.000000*%
%ADD47C,0.300000*%
%ADD48C,0.700000*%
%ADD49C,1.500000*%
%ADD50C,2.000000*%
%ADD51C,0.500000*%
%ADD52C,0.600000*%
%ADD53C,0.450000*%
%ADD54C,1.200000*%
%ADD55C,1.724000*%
%ADD56C,0.254000*%
G04 APERTURE END LIST*
D10*
D11*
X165585710Y-119330000D03*
X157965710Y-119330000D03*
D12*
X165585710Y-129490000D03*
X157965710Y-129490000D03*
D13*
X165585710Y-132030000D03*
D14*
X157965710Y-132030000D03*
D15*
X156460000Y-87440000D03*
X156460000Y-88240000D03*
X156460000Y-89040000D03*
X156460000Y-89840000D03*
X156460000Y-90640000D03*
X156460000Y-91440000D03*
X156460000Y-92240000D03*
X156460000Y-93040000D03*
D16*
X157910000Y-94490000D03*
X158710000Y-94490000D03*
X159510000Y-94490000D03*
X160310000Y-94490000D03*
X161110000Y-94490000D03*
X161910000Y-94490000D03*
X162710000Y-94490000D03*
X163510000Y-94490000D03*
D15*
X164960000Y-93040000D03*
X164960000Y-92240000D03*
X164960000Y-91440000D03*
X164960000Y-90640000D03*
X164960000Y-89840000D03*
X164960000Y-89040000D03*
X164960000Y-88240000D03*
X164960000Y-87440000D03*
D16*
X163510000Y-85990000D03*
X162710000Y-85990000D03*
X161910000Y-85990000D03*
X161110000Y-85990000D03*
X160310000Y-85990000D03*
X159510000Y-85990000D03*
X158710000Y-85990000D03*
X157910000Y-85990000D03*
D17*
X84000000Y-67000000D03*
X83000000Y-146000000D03*
X199000000Y-66000000D03*
X198000000Y-146000000D03*
D18*
X152750000Y-85330000D03*
X152750000Y-87830000D03*
D19*
X145920000Y-75340000D03*
X143420000Y-75340000D03*
D20*
X153210000Y-92640000D03*
X149210000Y-92640000D03*
D19*
X152430000Y-90340000D03*
X149930000Y-90340000D03*
D18*
X130450000Y-84750000D03*
X130450000Y-87250000D03*
D21*
X123760000Y-84330000D03*
X123760000Y-90430000D03*
D19*
X103500000Y-84300000D03*
X101000000Y-84300000D03*
D18*
X149860000Y-87830000D03*
X149860000Y-85330000D03*
D19*
X176720000Y-74510000D03*
X174220000Y-74510000D03*
X179513333Y-74510000D03*
X182013333Y-74510000D03*
X87900000Y-96900000D03*
X90400000Y-96900000D03*
D22*
X85850000Y-89900000D03*
X92850000Y-89900000D03*
D18*
X179740000Y-95670000D03*
X179740000Y-98170000D03*
D23*
X186519997Y-114400000D03*
X191919997Y-114400000D03*
X172731426Y-114400000D03*
X178131426Y-114400000D03*
X158942855Y-114400000D03*
X164342855Y-114400000D03*
X145154284Y-114400000D03*
X150554284Y-114400000D03*
X131365713Y-114400000D03*
X136765713Y-114400000D03*
X90000000Y-114400000D03*
X95400000Y-114400000D03*
X117577142Y-114400000D03*
X122977142Y-114400000D03*
X103788571Y-114400000D03*
X109188571Y-114400000D03*
D24*
X149890000Y-75310000D03*
X152590000Y-75310000D03*
D23*
X110950000Y-91800000D03*
X116350000Y-91800000D03*
X86250000Y-81400000D03*
X91650000Y-81400000D03*
D24*
X184550000Y-71630000D03*
X187250000Y-71630000D03*
X184706666Y-74460000D03*
X187406666Y-74460000D03*
D25*
X104750000Y-77300000D03*
X104750000Y-71300000D03*
X100050000Y-74300000D03*
D26*
X115550000Y-84600000D03*
X111150000Y-84600000D03*
D27*
X193250000Y-77650000D03*
X191750000Y-77650000D03*
X190250000Y-77650000D03*
X188750000Y-77650000D03*
X187250000Y-77650000D03*
X185750000Y-77650000D03*
X184250000Y-77650000D03*
X182750000Y-77650000D03*
X181250000Y-77650000D03*
X179750000Y-77650000D03*
X178250000Y-77650000D03*
X176750000Y-77650000D03*
X175250000Y-77650000D03*
D28*
X173450000Y-78750000D03*
X173450000Y-80250000D03*
X173450000Y-81750000D03*
X173450000Y-83250000D03*
X173450000Y-84750000D03*
X173450000Y-86250000D03*
X173450000Y-87750000D03*
X173450000Y-89250000D03*
D27*
X175250000Y-90350000D03*
X176750000Y-90350000D03*
X178250000Y-90350000D03*
X179750000Y-90350000D03*
X181250000Y-90350000D03*
X182750000Y-90350000D03*
X184250000Y-90350000D03*
X185750000Y-90350000D03*
X187250000Y-90350000D03*
X188750000Y-90350000D03*
X190250000Y-90350000D03*
X191750000Y-90350000D03*
X193250000Y-90350000D03*
D29*
X183500000Y-100370000D03*
X183500000Y-101640000D03*
X183500000Y-96560000D03*
X183550000Y-97830000D03*
X183500000Y-99100000D03*
X183500000Y-102910000D03*
X183500000Y-104180000D03*
X183500000Y-105450000D03*
D30*
X152820000Y-80020000D03*
X152820000Y-82720000D03*
X149860000Y-82720000D03*
X149860000Y-80020000D03*
X97750000Y-90050000D03*
X97750000Y-92750000D03*
X97750000Y-84450000D03*
X97750000Y-87150000D03*
D24*
X179390000Y-71670000D03*
X182090000Y-71670000D03*
X183980000Y-93160000D03*
X186680000Y-93160000D03*
X190260000Y-93160000D03*
X192960000Y-93160000D03*
X189790000Y-71610000D03*
X192490000Y-71610000D03*
X189999999Y-74460000D03*
X192699999Y-74460000D03*
D31*
X146600000Y-97800000D03*
X145330000Y-97800000D03*
X144060000Y-97800000D03*
X142790000Y-97800000D03*
X141520000Y-97800000D03*
X140250000Y-97800000D03*
X138980000Y-97800000D03*
X137710000Y-97800000D03*
X136440000Y-97800000D03*
X136440000Y-107200000D03*
X137710000Y-107200000D03*
X138980000Y-107200000D03*
X140250000Y-107200000D03*
X141520000Y-107200000D03*
X142790000Y-107200000D03*
X144060000Y-107200000D03*
X145330000Y-107200000D03*
X146600000Y-107200000D03*
D32*
X105455000Y-87100000D03*
X104185000Y-87100000D03*
X102915000Y-87100000D03*
X101645000Y-87100000D03*
X101645000Y-92500000D03*
X102915000Y-92500000D03*
X104185000Y-92500000D03*
X105455000Y-92500000D03*
D11*
X193299994Y-119330000D03*
X185679994Y-119330000D03*
D12*
X193299994Y-129490000D03*
X185679994Y-129490000D03*
D13*
X193299994Y-132030000D03*
D14*
X185679994Y-132030000D03*
D11*
X179442852Y-119330000D03*
X171822852Y-119330000D03*
D12*
X179442852Y-129490000D03*
X171822852Y-129490000D03*
D13*
X179442852Y-132030000D03*
D14*
X171822852Y-132030000D03*
D11*
X151728568Y-119330000D03*
X144108568Y-119330000D03*
D12*
X151728568Y-129490000D03*
X144108568Y-129490000D03*
D13*
X151728568Y-132030000D03*
D14*
X144108568Y-132030000D03*
D11*
X137871426Y-119330000D03*
X130251426Y-119330000D03*
D12*
X137871426Y-129490000D03*
X130251426Y-129490000D03*
D13*
X137871426Y-132030000D03*
D14*
X130251426Y-132030000D03*
D11*
X96300000Y-119330000D03*
X88680000Y-119330000D03*
D12*
X96300000Y-129490000D03*
X88680000Y-129490000D03*
D13*
X96300000Y-132030000D03*
D14*
X88680000Y-132030000D03*
D11*
X124014284Y-119330000D03*
X116394284Y-119330000D03*
D12*
X124014284Y-129490000D03*
X116394284Y-129490000D03*
D13*
X124014284Y-132030000D03*
D14*
X116394284Y-132030000D03*
D11*
X110157142Y-119330000D03*
X102537142Y-119330000D03*
D12*
X110157142Y-129490000D03*
X102537142Y-129490000D03*
D13*
X110157142Y-132030000D03*
D14*
X102537142Y-132030000D03*
D33*
X144880000Y-90910000D03*
D34*
X144880000Y-88370000D03*
X144880000Y-85830000D03*
X144880000Y-83290000D03*
D35*
X116710000Y-69200000D03*
X121790000Y-69200000D03*
D36*
X138390000Y-143400000D03*
X133310000Y-143400000D03*
X128230000Y-143400000D03*
D37*
X123150000Y-143400000D03*
D36*
X118070000Y-143400000D03*
X112990000Y-143400000D03*
X107910000Y-143400000D03*
D37*
X102830000Y-143400000D03*
D36*
X179030000Y-143400000D03*
X173950000Y-143400000D03*
X168870000Y-143400000D03*
D37*
X163790000Y-143400000D03*
D36*
X158710000Y-143400000D03*
X153630000Y-143400000D03*
X148550000Y-143400000D03*
D37*
X143470000Y-143400000D03*
D18*
X130320000Y-97760000D03*
X130320000Y-100260000D03*
D38*
X124330000Y-95870000D03*
X124330000Y-101670000D03*
D39*
X101740000Y-95750000D03*
X105740000Y-95750000D03*
D40*
X135440000Y-84500000D03*
D41*
X135440000Y-90800000D03*
X137740000Y-90800000D03*
X133140000Y-90800000D03*
D42*
X145860000Y-70870000D03*
D43*
X145860000Y-68870000D03*
X147860000Y-70870000D03*
X147860000Y-68870000D03*
X149860000Y-70870000D03*
X149860000Y-68870000D03*
X151860000Y-70870000D03*
X151860000Y-68870000D03*
X153860000Y-70870000D03*
X153860000Y-68870000D03*
X155860000Y-70870000D03*
X155860000Y-68870000D03*
X157860000Y-70870000D03*
X157860000Y-68870000D03*
X159860000Y-70870000D03*
X159860000Y-68870000D03*
X161860000Y-70870000D03*
X161860000Y-68870000D03*
X163860000Y-70870000D03*
X163860000Y-68870000D03*
D20*
X146560000Y-77880000D03*
X142560000Y-77880000D03*
D18*
X133400000Y-104340000D03*
X133400000Y-101840000D03*
D44*
X173710000Y-91480000D03*
X170030000Y-84180000D03*
X169930000Y-85100000D03*
X165630000Y-104500000D03*
X164790000Y-104400000D03*
X149210000Y-92640000D03*
X82640000Y-103930000D03*
X82690000Y-104860000D03*
X82740000Y-105640000D03*
X82660000Y-106550000D03*
X187430000Y-65820000D03*
X186590000Y-65860000D03*
X185720000Y-65860000D03*
X184940000Y-65900000D03*
X187820000Y-66740000D03*
X187030000Y-66740000D03*
X186120000Y-66740000D03*
X185300000Y-66740000D03*
X184550000Y-66740000D03*
X92470000Y-105520000D03*
X93370000Y-105580000D03*
X94290000Y-105760000D03*
X94790000Y-106480000D03*
X93820000Y-106400000D03*
X92970000Y-106440000D03*
X92160000Y-106360000D03*
X107580000Y-103760000D03*
X108440000Y-103820000D03*
X109320000Y-103850000D03*
X110110000Y-103980000D03*
X110730000Y-104590000D03*
X109780000Y-104640000D03*
X108920000Y-104640000D03*
X108010000Y-104610000D03*
X107050000Y-104590000D03*
X129270000Y-71320000D03*
X130150000Y-70500000D03*
X131020000Y-69830000D03*
X131680000Y-69150000D03*
X132690000Y-69320000D03*
X131950000Y-70000000D03*
X131180000Y-70750000D03*
X130490000Y-71430000D03*
X123910608Y-78767367D03*
X124797688Y-78753506D03*
X125726350Y-78808949D03*
X126655012Y-78808949D03*
X127597534Y-78739645D03*
X128089586Y-77942659D03*
X127084691Y-77949590D03*
X126121378Y-77963450D03*
X125227367Y-77928799D03*
X124290000Y-77880000D03*
X88160000Y-73420000D03*
X88920000Y-73420000D03*
X89690000Y-73480000D03*
X90150000Y-74300000D03*
X89370000Y-74300000D03*
X88610000Y-74300000D03*
X87840000Y-74220000D03*
X117455601Y-96308195D03*
X117151427Y-96885232D03*
X115597247Y-97613139D03*
X115733211Y-96667533D03*
X116490329Y-96356396D03*
X116410000Y-97180000D03*
X141490000Y-77880000D03*
X142560000Y-77880000D03*
X133140000Y-90800000D03*
X93636476Y-89476892D03*
X93597385Y-90317345D03*
X92777196Y-90686264D03*
X92850000Y-89900000D03*
X144197552Y-93337390D03*
X177999096Y-87570511D03*
X177340000Y-86970000D03*
X179750000Y-95120000D03*
X144945980Y-93054436D03*
X144880000Y-93820000D03*
X176750000Y-86630000D03*
X179750000Y-96020000D03*
X131356146Y-113510350D03*
X134500000Y-107230000D03*
X134900000Y-106470000D03*
X131365713Y-114400000D03*
X135350000Y-107230000D03*
X192900222Y-114393135D03*
X191919997Y-114400000D03*
X179032325Y-114408358D03*
X178131426Y-114400000D03*
X165238485Y-114423578D03*
X164342855Y-114400000D03*
X151480682Y-114395342D03*
X150554284Y-114400000D03*
X137612623Y-114436826D03*
X136765713Y-114400000D03*
X96374093Y-114406385D03*
X95400000Y-114400000D03*
X123922931Y-114452365D03*
X123000000Y-114400000D03*
X110143127Y-114412571D03*
X109200000Y-114400000D03*
X149890000Y-75310000D03*
X149860000Y-80020000D03*
X154506669Y-80722044D03*
X154520000Y-87030000D03*
X159100000Y-88980000D03*
X162298460Y-82962747D03*
X161941007Y-84579855D03*
X160738449Y-83113753D03*
X157960000Y-87630000D03*
X163436646Y-90356646D03*
X166530932Y-90909153D03*
X168045442Y-90307233D03*
X170460000Y-80220000D03*
X179830000Y-83640000D03*
X170320000Y-81900000D03*
X178030000Y-81810000D03*
X159470000Y-90730000D03*
X188540000Y-87570000D03*
X192490000Y-71610000D03*
X190340000Y-87010000D03*
X192699999Y-74460000D03*
X175341947Y-96677898D03*
X164941790Y-94427316D03*
X172118144Y-94764295D03*
X169390825Y-94812828D03*
X177137085Y-98977288D03*
X155440000Y-95320000D03*
X172055919Y-99570146D03*
X161069457Y-93028561D03*
X176898593Y-92971519D03*
X158550000Y-92340000D03*
X115670691Y-84176487D03*
X115624646Y-85090809D03*
X114789627Y-84610547D03*
X116433134Y-85078940D03*
X116483743Y-84194587D03*
X97750000Y-93750000D03*
X137780000Y-89040000D03*
X137749607Y-89829853D03*
X137740000Y-90800000D03*
X97750000Y-92750000D03*
D45*
X153775000Y-85330000D02*
X152750000Y-85330000D01*
X155050000Y-85330000D02*
X153775000Y-85330000D01*
X156460000Y-86740000D02*
X155050000Y-85330000D01*
X156460000Y-87440000D02*
X156460000Y-86740000D01*
X151580000Y-81380000D02*
X145478000Y-81380000D01*
X145478000Y-81380000D02*
X144880000Y-81978000D01*
X152820000Y-82720000D02*
X152820000Y-82620000D01*
X152820000Y-82620000D02*
X151580000Y-81380000D01*
X144880000Y-81978000D02*
X144880000Y-83290000D01*
D46*
X152750000Y-85330000D02*
X152750000Y-82790000D01*
X152750000Y-82790000D02*
X152820000Y-82720000D01*
D47*
X175250000Y-90350000D02*
X174840000Y-90350000D01*
X174840000Y-90350000D02*
X173710000Y-91480000D01*
X169370000Y-85660000D02*
X169930000Y-85100000D01*
X169370000Y-86470000D02*
X169370000Y-85660000D01*
X173450000Y-89250000D02*
X172150000Y-89250000D01*
X172150000Y-89250000D02*
X169370000Y-86470000D01*
X164790000Y-104400000D02*
X165530000Y-104400000D01*
X165530000Y-104400000D02*
X165630000Y-104500000D01*
X82690000Y-104860000D02*
X82690000Y-103980000D01*
X82690000Y-103980000D02*
X82640000Y-103930000D01*
X82660000Y-106550000D02*
X82660000Y-105720000D01*
X82660000Y-105720000D02*
X82740000Y-105640000D01*
X186590000Y-65860000D02*
X187390000Y-65860000D01*
X187390000Y-65860000D02*
X187430000Y-65820000D01*
X184940000Y-65900000D02*
X185680000Y-65900000D01*
X185680000Y-65900000D02*
X185720000Y-65860000D01*
X187030000Y-66740000D02*
X187820000Y-66740000D01*
X185300000Y-66740000D02*
X186120000Y-66740000D01*
X184550000Y-69260000D02*
X184550000Y-66740000D01*
D48*
X183550000Y-97830000D02*
X180080000Y-97830000D01*
X180080000Y-97830000D02*
X179740000Y-98170000D01*
D47*
X93370000Y-105580000D02*
X92530000Y-105580000D01*
X92530000Y-105580000D02*
X92470000Y-105520000D01*
X94790000Y-106480000D02*
X94790000Y-106260000D01*
X94790000Y-106260000D02*
X94290000Y-105760000D01*
X92970000Y-106440000D02*
X93780000Y-106440000D01*
X93780000Y-106440000D02*
X93820000Y-106400000D01*
X93930000Y-104590000D02*
X92160000Y-106360000D01*
X107050000Y-104590000D02*
X93930000Y-104590000D01*
X109320000Y-103850000D02*
X108470000Y-103850000D01*
X108470000Y-103850000D02*
X108440000Y-103820000D01*
X110730000Y-104590000D02*
X110720000Y-104590000D01*
X110720000Y-104590000D02*
X110110000Y-103980000D01*
X108920000Y-104640000D02*
X109780000Y-104640000D01*
X107050000Y-104590000D02*
X107990000Y-104590000D01*
X107990000Y-104590000D02*
X108010000Y-104610000D01*
X114026861Y-97613139D02*
X107050000Y-104590000D01*
X115597247Y-97613139D02*
X114026861Y-97613139D01*
D49*
X131020000Y-69830000D02*
X130820000Y-69830000D01*
X130820000Y-69830000D02*
X130150000Y-70500000D01*
X132690000Y-69320000D02*
X131850000Y-69320000D01*
X131850000Y-69320000D02*
X131680000Y-69150000D01*
X131180000Y-70750000D02*
X131200000Y-70750000D01*
X131200000Y-70750000D02*
X131950000Y-70000000D01*
X127597534Y-78739645D02*
X127597534Y-74322466D01*
X127597534Y-74322466D02*
X130490000Y-71430000D01*
X123910608Y-78767367D02*
X127569812Y-78767367D01*
X127569812Y-78767367D02*
X127597534Y-78739645D01*
D47*
X124853131Y-78808949D02*
X124797688Y-78753506D01*
X125726350Y-78808949D02*
X124853131Y-78808949D01*
X126724316Y-78739645D02*
X126655012Y-78808949D01*
X127597534Y-78739645D02*
X126724316Y-78739645D01*
X128082655Y-77949590D02*
X128089586Y-77942659D01*
X127084691Y-77949590D02*
X128082655Y-77949590D01*
X126086727Y-77928799D02*
X126121378Y-77963450D01*
X125227367Y-77928799D02*
X126086727Y-77928799D01*
X89690000Y-73480000D02*
X88980000Y-73480000D01*
X88980000Y-73480000D02*
X88920000Y-73420000D01*
X87840000Y-74220000D02*
X88530000Y-74220000D01*
X88530000Y-74220000D02*
X88610000Y-74300000D01*
D50*
X116410000Y-100010000D02*
X118070000Y-101670000D01*
X118070000Y-101670000D02*
X124330000Y-101670000D01*
X116410000Y-97180000D02*
X116410000Y-100010000D01*
X116350000Y-91800000D02*
X116350000Y-97120000D01*
X116350000Y-97120000D02*
X116410000Y-97180000D01*
D47*
X117455601Y-96581058D02*
X117455601Y-96308195D01*
X117151427Y-96885232D02*
X117455601Y-96581058D01*
X116856659Y-97180000D02*
X117151427Y-96885232D01*
X116410000Y-97180000D02*
X116856659Y-97180000D01*
X116490329Y-96356396D02*
X116490329Y-97099671D01*
X116490329Y-97099671D02*
X116410000Y-97180000D01*
X115770743Y-96630001D02*
X115733211Y-96667533D01*
X115860001Y-96630001D02*
X115770743Y-96630001D01*
X116410000Y-97180000D02*
X115860001Y-96630001D01*
D46*
X163270000Y-66120000D02*
X127120000Y-66120000D01*
X127120000Y-66120000D02*
X124040000Y-69200000D01*
X124040000Y-69200000D02*
X121790000Y-69200000D01*
X163860000Y-66710000D02*
X163270000Y-66120000D01*
X163860000Y-68870000D02*
X163860000Y-66710000D01*
D48*
X184160000Y-68870000D02*
X174160000Y-68870000D01*
X174160000Y-68870000D02*
X163860000Y-68870000D01*
X174220000Y-74510000D02*
X174220000Y-68930000D01*
X174220000Y-68930000D02*
X174160000Y-68870000D01*
X184550000Y-69260000D02*
X184160000Y-68870000D01*
X184550000Y-71630000D02*
X184550000Y-69260000D01*
D45*
X175250000Y-77650000D02*
X175250000Y-90350000D01*
D51*
X175250000Y-91850000D02*
X175250000Y-90350000D01*
X175250000Y-93895000D02*
X175250000Y-91850000D01*
X179750000Y-98395000D02*
X175250000Y-93895000D01*
X179750000Y-98520000D02*
X179750000Y-98395000D01*
D46*
X190910000Y-97830000D02*
X192960000Y-95780000D01*
X192960000Y-95780000D02*
X192960000Y-93160000D01*
X183550000Y-97830000D02*
X190910000Y-97830000D01*
X184706666Y-74460000D02*
X182063333Y-74460000D01*
X182063333Y-74460000D02*
X182013333Y-74510000D01*
X184706666Y-74460000D02*
X184706666Y-71786666D01*
X184706666Y-71786666D02*
X184550000Y-71630000D01*
D52*
X175250000Y-77650000D02*
X175250000Y-75540000D01*
X175250000Y-75540000D02*
X174220000Y-74510000D01*
D46*
X163860000Y-68870000D02*
X163860000Y-70870000D01*
X149860000Y-85330000D02*
X149860000Y-82720000D01*
X140950000Y-79600000D02*
X142560000Y-77990000D01*
X142560000Y-77990000D02*
X142560000Y-77880000D01*
X140950000Y-84230000D02*
X140950000Y-79600000D01*
X142550000Y-85830000D02*
X140950000Y-84230000D01*
X144880000Y-85830000D02*
X142550000Y-85830000D01*
D51*
X148410000Y-90340000D02*
X147340000Y-89270000D01*
X147340000Y-89270000D02*
X147340000Y-85830000D01*
X149930000Y-90340000D02*
X148410000Y-90340000D01*
D46*
X142560000Y-77880000D02*
X142560000Y-76200000D01*
X142560000Y-76200000D02*
X143420000Y-75340000D01*
D51*
X174860000Y-89250000D02*
X175250000Y-89640000D01*
X175250000Y-89640000D02*
X175250000Y-90350000D01*
X173450000Y-89250000D02*
X174860000Y-89250000D01*
D45*
X152750000Y-87830000D02*
X152360000Y-87830000D01*
X152360000Y-87830000D02*
X149860000Y-85330000D01*
D51*
X147340000Y-85830000D02*
X147840000Y-85330000D01*
X147840000Y-85330000D02*
X149860000Y-85330000D01*
X144880000Y-85830000D02*
X147340000Y-85830000D01*
D46*
X149210000Y-92640000D02*
X149210000Y-91060000D01*
X149210000Y-91060000D02*
X149930000Y-90340000D01*
D47*
X152750000Y-87830000D02*
X153675000Y-87830000D01*
X153675000Y-87830000D02*
X155685000Y-89840000D01*
X155685000Y-89840000D02*
X156460000Y-89840000D01*
D49*
X133140000Y-90800000D02*
X130500000Y-90800000D01*
X130500000Y-90800000D02*
X124130000Y-90800000D01*
D46*
X130450000Y-87250000D02*
X130450000Y-90750000D01*
X130450000Y-90750000D02*
X130500000Y-90800000D01*
D49*
X124130000Y-90800000D02*
X123760000Y-90430000D01*
D46*
X130370000Y-101840000D02*
X124500000Y-101840000D01*
X133400000Y-101840000D02*
X130370000Y-101840000D01*
X130370000Y-101840000D02*
X130370000Y-100310000D01*
X130370000Y-100310000D02*
X130320000Y-100260000D01*
D52*
X133400000Y-101840000D02*
X135080000Y-101840000D01*
X135080000Y-101840000D02*
X136440000Y-100480000D01*
D46*
X124500000Y-101840000D02*
X124330000Y-101670000D01*
D52*
X136440000Y-100480000D02*
X135470000Y-101450000D01*
X136440000Y-97800000D02*
X136440000Y-100480000D01*
D46*
X130450000Y-87250000D02*
X130450000Y-87375000D01*
X130450000Y-87375000D02*
X130470000Y-87395000D01*
D50*
X116350000Y-91800000D02*
X122390000Y-91800000D01*
X122390000Y-91800000D02*
X123760000Y-90430000D01*
D46*
X94050000Y-84450000D02*
X92850000Y-85650000D01*
X92850000Y-85650000D02*
X92850000Y-89900000D01*
X97750000Y-84450000D02*
X94050000Y-84450000D01*
X92850000Y-89900000D02*
X92850000Y-94450000D01*
X92850000Y-94450000D02*
X90400000Y-96900000D01*
X93597385Y-89515983D02*
X93636476Y-89476892D01*
X93597385Y-90317345D02*
X93597385Y-89515983D01*
X93047386Y-90867344D02*
X93597385Y-90317345D01*
X92777196Y-89522804D02*
X92777196Y-89908447D01*
X92777196Y-89908447D02*
X92777196Y-90686264D01*
X97750000Y-84450000D02*
X97750000Y-84550000D01*
D52*
X101645000Y-87100000D02*
X101645000Y-84945000D01*
X101645000Y-84945000D02*
X101000000Y-84300000D01*
D46*
X101000000Y-84300000D02*
X97900000Y-84300000D01*
X97900000Y-84300000D02*
X97750000Y-84450000D01*
D49*
X104750000Y-71300000D02*
X103050000Y-71300000D01*
X103050000Y-71300000D02*
X100050000Y-74300000D01*
X106150000Y-65100000D02*
X104750000Y-66500000D01*
X104750000Y-66500000D02*
X104750000Y-71300000D01*
X120690000Y-65100000D02*
X106150000Y-65100000D01*
X121790000Y-69200000D02*
X121790000Y-66200000D01*
X121790000Y-66200000D02*
X120690000Y-65100000D01*
D48*
X182210000Y-96560000D02*
X181670000Y-96020000D01*
X181670000Y-96020000D02*
X179750000Y-96020000D01*
X183500000Y-96560000D02*
X182210000Y-96560000D01*
D47*
X177940511Y-87570511D02*
X177999096Y-87570511D01*
X177340000Y-86970000D02*
X177940511Y-87570511D01*
X176750000Y-86630000D02*
X177000000Y-86630000D01*
X177000000Y-86630000D02*
X177340000Y-86970000D01*
X179750000Y-96020000D02*
X179750000Y-95120000D01*
D49*
X144945980Y-92276619D02*
X144945980Y-93054436D01*
X144945980Y-90975980D02*
X144945980Y-92276619D01*
X144880000Y-90910000D02*
X144945980Y-90975980D01*
X144880000Y-93120416D02*
X144945980Y-93054436D01*
X144880000Y-93470000D02*
X144880000Y-93120416D01*
D52*
X144880000Y-93820000D02*
X144880000Y-93470000D01*
D49*
X141990000Y-93760000D02*
X144590000Y-93760000D01*
X144590000Y-93760000D02*
X144880000Y-93470000D01*
X135440000Y-84500000D02*
X135440000Y-73950000D01*
X135440000Y-73950000D02*
X138520000Y-70870000D01*
X138520000Y-70870000D02*
X145860000Y-70870000D01*
D52*
X176750000Y-77650000D02*
X176750000Y-86630000D01*
X176720000Y-72520000D02*
X177570000Y-71670000D01*
X177570000Y-71670000D02*
X179390000Y-71670000D01*
X176720000Y-74510000D02*
X176720000Y-72520000D01*
X176750000Y-77650000D02*
X176750000Y-74540000D01*
X176750000Y-74540000D02*
X176720000Y-74510000D01*
D46*
X146560000Y-77880000D02*
X152430000Y-77880000D01*
X152430000Y-77880000D02*
X152820000Y-78270000D01*
X152820000Y-78270000D02*
X152820000Y-80020000D01*
D52*
X146080000Y-95020000D02*
X144880000Y-93820000D01*
X152230000Y-95020000D02*
X146080000Y-95020000D01*
X153210000Y-92640000D02*
X153210000Y-94040000D01*
X153210000Y-94040000D02*
X152230000Y-95020000D01*
D46*
X146560000Y-77880000D02*
X146560000Y-75980000D01*
X146560000Y-75980000D02*
X145920000Y-75340000D01*
X145860000Y-70870000D02*
X145860000Y-75280000D01*
X145860000Y-75280000D02*
X145920000Y-75340000D01*
X145860000Y-68870000D02*
X145860000Y-70870000D01*
D49*
X135440000Y-93760000D02*
X141520000Y-93760000D01*
X141990000Y-93760000D02*
X141520000Y-93760000D01*
X144880000Y-90910000D02*
X144840000Y-90910000D01*
D53*
X153210000Y-92640000D02*
X154660000Y-92640000D01*
X155010000Y-92290000D02*
X155010000Y-91840000D01*
X154660000Y-92640000D02*
X155010000Y-92290000D01*
X155010000Y-91840000D02*
X155410000Y-91440000D01*
X155410000Y-91440000D02*
X156460000Y-91440000D01*
D46*
X153210000Y-92640000D02*
X153210000Y-91120000D01*
X153210000Y-91120000D02*
X152430000Y-90340000D01*
D49*
X124330000Y-95870000D02*
X130470000Y-95870000D01*
X130470000Y-95870000D02*
X133330000Y-95870000D01*
D46*
X130320000Y-97760000D02*
X130320000Y-96010000D01*
X130320000Y-96010000D02*
X130460000Y-95870000D01*
X130460000Y-95870000D02*
X130470000Y-95870000D01*
D49*
X133330000Y-95870000D02*
X135440000Y-93760000D01*
X135440000Y-93760000D02*
X135440000Y-90800000D01*
D54*
X135440000Y-90800000D02*
X135440000Y-84500000D01*
D52*
X102915000Y-87100000D02*
X102915000Y-84885000D01*
X102915000Y-84885000D02*
X103500000Y-84300000D01*
D47*
X156460000Y-90640000D02*
X155560000Y-90640000D01*
X155560000Y-90640000D02*
X155550000Y-90630000D01*
X155550000Y-90630000D02*
X155060000Y-90630000D01*
X155060000Y-90630000D02*
X153590000Y-89160000D01*
X153590000Y-89160000D02*
X150140000Y-89160000D01*
X150140000Y-89160000D02*
X149860000Y-88880000D01*
X149860000Y-88880000D02*
X149860000Y-87830000D01*
D52*
X178250000Y-77650000D02*
X178250000Y-75773333D01*
X178250000Y-75773333D02*
X179513333Y-74510000D01*
X179513333Y-74510000D02*
X179513333Y-74246667D01*
X179513333Y-74246667D02*
X182090000Y-71670000D01*
D46*
X186519997Y-114400000D02*
X183769997Y-114400000D01*
X183769997Y-114400000D02*
X182650000Y-115519997D01*
X182650000Y-115519997D02*
X182650000Y-123800000D01*
X182650000Y-123800000D02*
X182530000Y-123920000D01*
D52*
X135350000Y-107230000D02*
X134500000Y-107230000D01*
X134500000Y-107230000D02*
X133750000Y-107230000D01*
D47*
X134900000Y-106470000D02*
X134900000Y-106830000D01*
X134900000Y-106830000D02*
X134500000Y-107230000D01*
D50*
X86250000Y-97050000D02*
X86250000Y-102240000D01*
X86250000Y-102240000D02*
X86250000Y-113350000D01*
D46*
X100170000Y-102100000D02*
X86390000Y-102100000D01*
X86390000Y-102100000D02*
X86250000Y-102240000D01*
D47*
X85850000Y-102100000D02*
X86380000Y-102100000D01*
D50*
X86250000Y-81400000D02*
X86250000Y-83530000D01*
X86250000Y-83530000D02*
X86250000Y-97050000D01*
D47*
X85850000Y-89900000D02*
X85850000Y-88350000D01*
X85850000Y-88350000D02*
X86250000Y-87950000D01*
X86250000Y-87950000D02*
X86250000Y-83530000D01*
D46*
X86400000Y-96900000D02*
X86250000Y-97050000D01*
X87900000Y-96900000D02*
X86400000Y-96900000D01*
D49*
X184460000Y-123920000D02*
X182530000Y-123920000D01*
X182530000Y-123920000D02*
X171810000Y-123920000D01*
X171810000Y-123920000D02*
X168990000Y-123920000D01*
X168990000Y-123920000D02*
X157960000Y-123920000D01*
D46*
X168860000Y-115521426D02*
X168860000Y-123790000D01*
X168860000Y-123790000D02*
X168990000Y-123920000D01*
X172731426Y-114400000D02*
X169981426Y-114400000D01*
X169981426Y-114400000D02*
X168860000Y-115521426D01*
D49*
X157960000Y-123920000D02*
X155040000Y-123920000D01*
X155040000Y-123920000D02*
X143980000Y-123920000D01*
D46*
X154960000Y-115632855D02*
X154960000Y-123840000D01*
X154960000Y-123840000D02*
X155040000Y-123920000D01*
X158942855Y-114400000D02*
X156192855Y-114400000D01*
X156192855Y-114400000D02*
X154960000Y-115632855D01*
D54*
X171822852Y-129490000D02*
X171822852Y-127528000D01*
X171822852Y-127528000D02*
X171810000Y-127515148D01*
X171810000Y-127515148D02*
X171810000Y-123920000D01*
X157965710Y-129490000D02*
X157965710Y-123925710D01*
X157965710Y-123925710D02*
X157960000Y-123920000D01*
D49*
X143980000Y-123920000D02*
X141030000Y-123920000D01*
D54*
X144108568Y-129490000D02*
X144108568Y-124048568D01*
X144108568Y-124048568D02*
X143980000Y-123920000D01*
D49*
X141030000Y-123920000D02*
X130310000Y-123920000D01*
D46*
X142200000Y-114400000D02*
X141030000Y-115570000D01*
X141030000Y-115570000D02*
X141030000Y-123920000D01*
X145154284Y-114400000D02*
X142200000Y-114400000D01*
D54*
X130251426Y-129490000D02*
X130251426Y-123978574D01*
D49*
X130310000Y-123920000D02*
X127460000Y-123920000D01*
D54*
X130251426Y-123978574D02*
X130310000Y-123920000D01*
D49*
X127460000Y-123920000D02*
X116380000Y-123920000D01*
D54*
X127410000Y-115405713D02*
X127410000Y-123870000D01*
X127410000Y-123870000D02*
X127460000Y-123920000D01*
X131365713Y-114400000D02*
X128415713Y-114400000D01*
X128415713Y-114400000D02*
X127410000Y-115405713D01*
D49*
X116380000Y-123920000D02*
X113240000Y-123920000D01*
D54*
X116394284Y-129490000D02*
X116394284Y-123934284D01*
X116394284Y-123934284D02*
X116380000Y-123920000D01*
X102537142Y-129490000D02*
X102537142Y-123952858D01*
X102537142Y-123952858D02*
X102570000Y-123920000D01*
D46*
X114450000Y-114400000D02*
X113240000Y-115610000D01*
D49*
X113240000Y-123920000D02*
X102570000Y-123920000D01*
D46*
X113240000Y-115610000D02*
X113240000Y-123920000D01*
X117577142Y-114400000D02*
X114450000Y-114400000D01*
D49*
X102570000Y-123920000D02*
X99380000Y-123920000D01*
X99380000Y-123920000D02*
X88600000Y-123920000D01*
D46*
X99410000Y-115100000D02*
X99410000Y-123890000D01*
X99410000Y-123890000D02*
X99380000Y-123920000D01*
X100110000Y-114400000D02*
X99410000Y-115100000D01*
X103788571Y-114400000D02*
X100110000Y-114400000D01*
D49*
X88600000Y-123920000D02*
X86650000Y-123920000D01*
X88680000Y-129490000D02*
X88680000Y-124000000D01*
X88680000Y-124000000D02*
X88600000Y-123920000D01*
D50*
X90000000Y-114400000D02*
X87300000Y-114400000D01*
X87300000Y-114400000D02*
X86250000Y-113350000D01*
D49*
X84830000Y-114910000D02*
X85340000Y-114400000D01*
X85340000Y-114400000D02*
X90000000Y-114400000D01*
X84830000Y-122100000D02*
X84830000Y-114910000D01*
X86650000Y-123920000D02*
X84830000Y-122100000D01*
X185680000Y-125140000D02*
X184460000Y-123920000D01*
X185680000Y-127227994D02*
X185680000Y-125140000D01*
X185679994Y-129490000D02*
X185679994Y-127228000D01*
X185679994Y-127228000D02*
X185680000Y-127227994D01*
D52*
X133750000Y-107230000D02*
X133400000Y-106880000D01*
X133400000Y-106880000D02*
X133400000Y-104340000D01*
D47*
X136440000Y-107200000D02*
X135380000Y-107200000D01*
X135380000Y-107200000D02*
X135350000Y-107230000D01*
D46*
X101740000Y-100530000D02*
X100170000Y-102100000D01*
X101740000Y-95750000D02*
X101740000Y-100530000D01*
D52*
X102915000Y-92500000D02*
X102915000Y-94575000D01*
X102915000Y-94575000D02*
X101740000Y-95750000D01*
D49*
X85850000Y-81800000D02*
X86250000Y-81400000D01*
D52*
X146600000Y-107200000D02*
X177500000Y-107200000D01*
X177500000Y-107200000D02*
X180440000Y-110140000D01*
X180440000Y-110140000D02*
X190710000Y-110140000D01*
X190710000Y-110140000D02*
X191919997Y-111349997D01*
X191919997Y-111349997D02*
X191919997Y-114400000D01*
X178131426Y-114400000D02*
X178131426Y-111761426D01*
X178131426Y-111761426D02*
X175540000Y-109170000D01*
X175540000Y-109170000D02*
X145700000Y-109170000D01*
X145700000Y-109170000D02*
X145330000Y-108800000D01*
X145330000Y-108800000D02*
X145330000Y-107200000D01*
X144060000Y-107200000D02*
X144060000Y-109560000D01*
X144060000Y-109560000D02*
X144930000Y-110430000D01*
X144930000Y-110430000D02*
X162690000Y-110430000D01*
X162690000Y-110430000D02*
X164342855Y-112082855D01*
X164342855Y-112082855D02*
X164342855Y-114400000D01*
X149670000Y-111640000D02*
X150554284Y-112524284D01*
X150554284Y-112524284D02*
X150554284Y-114400000D01*
X143860000Y-111640000D02*
X149670000Y-111640000D01*
X142790000Y-110570000D02*
X143860000Y-111640000D01*
X142790000Y-107200000D02*
X142790000Y-110570000D01*
X141520000Y-107200000D02*
X141520000Y-109740000D01*
X136765713Y-114400000D02*
X137365713Y-114400000D01*
X137365713Y-114400000D02*
X141520000Y-110245713D01*
X141520000Y-110245713D02*
X141520000Y-109740000D01*
X95400000Y-114400000D02*
X95400000Y-110690000D01*
X136830000Y-109190000D02*
X96900000Y-109190000D01*
X96900000Y-109190000D02*
X95400000Y-110690000D01*
X137710000Y-108310000D02*
X136830000Y-109190000D01*
X137710000Y-107200000D02*
X137710000Y-108310000D01*
X140250000Y-107200000D02*
X140250000Y-109660000D01*
X140250000Y-109660000D02*
X138320000Y-111590000D01*
X125810000Y-111590000D02*
X123549999Y-113850001D01*
X138320000Y-111590000D02*
X125810000Y-111590000D01*
X123549999Y-113850001D02*
X123000000Y-114400000D01*
D47*
X110130556Y-114400000D02*
X110143127Y-114412571D01*
X109200000Y-114400000D02*
X110130556Y-114400000D01*
D52*
X109200000Y-114400000D02*
X109200000Y-111600000D01*
X109200000Y-111600000D02*
X110540000Y-110260000D01*
X110540000Y-110260000D02*
X137520000Y-110260000D01*
X137520000Y-110260000D02*
X138980000Y-108800000D01*
X138980000Y-108800000D02*
X138980000Y-107200000D01*
D51*
X154506669Y-80722044D02*
X154506669Y-77126669D01*
X154506669Y-77126669D02*
X152690000Y-75310000D01*
X152690000Y-75310000D02*
X152590000Y-75310000D01*
D47*
X155730000Y-88240000D02*
X154520000Y-87030000D01*
X156460000Y-88240000D02*
X155730000Y-88240000D01*
D49*
X111150000Y-84600000D02*
X111150000Y-91600000D01*
X111150000Y-91600000D02*
X110950000Y-91800000D01*
D52*
X104185000Y-86045000D02*
X105630000Y-84600000D01*
X105630000Y-84600000D02*
X111150000Y-84600000D01*
X104185000Y-87100000D02*
X104185000Y-86045000D01*
D50*
X104750000Y-77300000D02*
X113330000Y-77300000D01*
X113330000Y-77300000D02*
X116710000Y-73920000D01*
X116710000Y-73920000D02*
X116710000Y-69200000D01*
D49*
X104650000Y-77300000D02*
X100550000Y-81400000D01*
X100550000Y-81400000D02*
X91650000Y-81400000D01*
X104750000Y-77300000D02*
X104650000Y-77300000D01*
D46*
X187250000Y-71630000D02*
X189770000Y-71630000D01*
X189770000Y-71630000D02*
X189790000Y-71610000D01*
X187406666Y-74460000D02*
X189999999Y-74460000D01*
D47*
X160620000Y-88980000D02*
X159100000Y-88980000D01*
X162710000Y-85990000D02*
X162710000Y-86890000D01*
X162710000Y-86890000D02*
X160620000Y-88980000D01*
X162848459Y-83512746D02*
X162298460Y-82962747D01*
X163510000Y-84174287D02*
X162848459Y-83512746D01*
X163510000Y-85990000D02*
X163510000Y-84174287D01*
D46*
X147860000Y-68870000D02*
X147860000Y-70870000D01*
D45*
X161910000Y-84610862D02*
X161941007Y-84579855D01*
X161910000Y-85990000D02*
X161910000Y-84610862D01*
D46*
X149860000Y-68870000D02*
X149860000Y-70870000D01*
D45*
X160738449Y-83891570D02*
X160738449Y-83113753D01*
X161110000Y-85185520D02*
X160738449Y-84813969D01*
X161110000Y-85990000D02*
X161110000Y-85185520D01*
X160738449Y-84813969D02*
X160738449Y-83891570D01*
D46*
X151860000Y-68870000D02*
X151860000Y-70870000D01*
D47*
X159770000Y-87430000D02*
X158160000Y-87430000D01*
X158160000Y-87430000D02*
X157960000Y-87630000D01*
X160310000Y-85990000D02*
X160310000Y-86890000D01*
X160310000Y-86890000D02*
X159770000Y-87430000D01*
D46*
X153860000Y-70870000D02*
X153860000Y-68870000D01*
D45*
X157910000Y-85690000D02*
X155860000Y-83640000D01*
X155860000Y-83640000D02*
X155860000Y-72032000D01*
X155860000Y-72032000D02*
X155860000Y-70870000D01*
X157910000Y-85990000D02*
X157910000Y-85690000D01*
D46*
X155860000Y-68870000D02*
X155860000Y-70870000D01*
D47*
X163436646Y-90816646D02*
X163436646Y-90356646D01*
X164060000Y-91440000D02*
X163436646Y-90816646D01*
X164960000Y-91440000D02*
X164060000Y-91440000D01*
D46*
X157860000Y-68870000D02*
X157860000Y-70870000D01*
D47*
X166261779Y-90640000D02*
X166530932Y-90909153D01*
X164960000Y-90640000D02*
X166261779Y-90640000D01*
D46*
X159860000Y-68870000D02*
X159860000Y-70870000D01*
D47*
X167578209Y-89840000D02*
X168045442Y-90307233D01*
X164960000Y-89840000D02*
X167578209Y-89840000D01*
D46*
X161860000Y-68870000D02*
X161860000Y-70870000D01*
D55*
X138390000Y-143400000D02*
X138390000Y-132548574D01*
X138390000Y-132548574D02*
X137871426Y-132030000D01*
X128260000Y-139970000D02*
X128260000Y-143370000D01*
X128260000Y-143370000D02*
X128230000Y-143400000D01*
X124014284Y-135724284D02*
X128260000Y-139970000D01*
X124014284Y-135664284D02*
X124014284Y-135724284D01*
X124014284Y-132030000D02*
X124014284Y-135664284D01*
D49*
X125140000Y-136790000D02*
X124014284Y-135664284D01*
D55*
X128230000Y-143400000D02*
X128230000Y-142850000D01*
X112320000Y-137490000D02*
X110157142Y-135327142D01*
X110157142Y-135327142D02*
X110157142Y-134566000D01*
X110157142Y-134566000D02*
X110157142Y-132030000D01*
X118070000Y-139290000D02*
X116270000Y-137490000D01*
X116270000Y-137490000D02*
X112320000Y-137490000D01*
X118070000Y-143400000D02*
X118070000Y-139290000D01*
X107910000Y-143400000D02*
X107910000Y-139390000D01*
X107910000Y-139390000D02*
X104470000Y-135950000D01*
X104470000Y-135950000D02*
X97684000Y-135950000D01*
X97684000Y-135950000D02*
X96300000Y-134566000D01*
X96300000Y-134566000D02*
X96300000Y-132030000D01*
X189020000Y-143400000D02*
X193299994Y-139120006D01*
X193299994Y-139120006D02*
X193299994Y-132030000D01*
X179030000Y-143400000D02*
X189020000Y-143400000D01*
D49*
X193299994Y-132030000D02*
X193299994Y-132925006D01*
D55*
X148550000Y-143400000D02*
X148550000Y-135208568D01*
X148550000Y-135208568D02*
X151728568Y-132030000D01*
D49*
X148550000Y-143400000D02*
X148550000Y-140038000D01*
X148550000Y-140038000D02*
X148580000Y-140008000D01*
X148580000Y-140008000D02*
X148580000Y-135178568D01*
X148580000Y-139000000D02*
X148580000Y-135178568D01*
X148580000Y-135178568D02*
X151728568Y-132030000D01*
D55*
X165585710Y-136164290D02*
X165585710Y-132030000D01*
X164250000Y-137500000D02*
X165585710Y-136164290D01*
X159750000Y-137500000D02*
X164250000Y-137500000D01*
X158710000Y-143400000D02*
X158710000Y-138540000D01*
X158710000Y-138540000D02*
X159750000Y-137500000D01*
X179442852Y-133110000D02*
X179442852Y-132030000D01*
X179442852Y-133110000D02*
X179442852Y-136107148D01*
X177750000Y-137800000D02*
X179442852Y-136107148D01*
X168870000Y-143400000D02*
X168870000Y-139814000D01*
X168870000Y-139814000D02*
X170884000Y-137800000D01*
X170884000Y-137800000D02*
X177750000Y-137800000D01*
D45*
X169682183Y-80220000D02*
X170460000Y-80220000D01*
X158710000Y-84899076D02*
X157971105Y-84160181D01*
X157971105Y-84160181D02*
X157971105Y-82316580D01*
X158710000Y-85990000D02*
X158710000Y-84899076D01*
X160067685Y-80220000D02*
X169682183Y-80220000D01*
X157971105Y-82316580D02*
X160067685Y-80220000D01*
D52*
X190500000Y-83640000D02*
X179830000Y-83640000D01*
X193250000Y-80890000D02*
X190500000Y-83640000D01*
X193250000Y-77650000D02*
X193250000Y-80890000D01*
D45*
X159312596Y-81900000D02*
X169542183Y-81900000D01*
X169542183Y-81900000D02*
X170320000Y-81900000D01*
X159510000Y-85990000D02*
X159510000Y-84436206D01*
X158625116Y-83551322D02*
X158625116Y-82587480D01*
X158625116Y-82587480D02*
X159312596Y-81900000D01*
X159510000Y-84436206D02*
X158625116Y-83551322D01*
D52*
X189190000Y-81810000D02*
X178030000Y-81810000D01*
X191750000Y-77650000D02*
X191750000Y-79250000D01*
X191750000Y-79250000D02*
X189190000Y-81810000D01*
D47*
X156460000Y-89040000D02*
X157780000Y-89040000D01*
X157780000Y-89040000D02*
X159470000Y-90730000D01*
D52*
X188750000Y-90350000D02*
X188750000Y-87780000D01*
X188750000Y-87780000D02*
X188540000Y-87570000D01*
X190250000Y-90350000D02*
X190250000Y-87100000D01*
X190250000Y-87100000D02*
X190340000Y-87010000D01*
D46*
X190260000Y-93160000D02*
X186680000Y-93160000D01*
D45*
X190260000Y-93160000D02*
X190260000Y-92970000D01*
X190260000Y-92970000D02*
X191270000Y-91960000D01*
X191270000Y-91960000D02*
X192260000Y-91960000D01*
X192260000Y-91960000D02*
X193250000Y-90970000D01*
X193250000Y-90970000D02*
X193250000Y-90350000D01*
X183500000Y-100370000D02*
X176780000Y-100370000D01*
X175341947Y-99190000D02*
X175341947Y-97455715D01*
X176521947Y-100370000D02*
X175341947Y-99190000D01*
X176780000Y-100370000D02*
X176521947Y-100370000D01*
X175341947Y-97455715D02*
X175341947Y-96677898D01*
X164960000Y-93040000D02*
X164960000Y-94409106D01*
X164960000Y-94409106D02*
X164941790Y-94427316D01*
X183500000Y-101640000D02*
X176280000Y-101640000D01*
X172118144Y-97478144D02*
X176280000Y-101640000D01*
X172118144Y-94764295D02*
X172118144Y-97478144D01*
X169390825Y-89768648D02*
X169390825Y-94035011D01*
X168662177Y-89040000D02*
X169390825Y-89768648D01*
X164960000Y-89040000D02*
X168662177Y-89040000D01*
X169390825Y-94035011D02*
X169390825Y-94812828D01*
X177687084Y-99527287D02*
X177137085Y-98977288D01*
X177869929Y-99710132D02*
X177687084Y-99527287D01*
X181475000Y-99100000D02*
X180864868Y-99710132D01*
X183500000Y-99100000D02*
X181475000Y-99100000D01*
X180864868Y-99710132D02*
X177869929Y-99710132D01*
X156460000Y-93040000D02*
X156460000Y-94300000D01*
X156460000Y-94300000D02*
X155440000Y-95320000D01*
X172605918Y-100120145D02*
X172055919Y-99570146D01*
X175395773Y-102910000D02*
X172605918Y-100120145D01*
X183500000Y-102910000D02*
X175395773Y-102910000D01*
X161069457Y-92250744D02*
X161069457Y-93028561D01*
X162289840Y-88240000D02*
X161069457Y-89460383D01*
X161069457Y-89460383D02*
X161069457Y-92250744D01*
X164960000Y-88240000D02*
X162289840Y-88240000D01*
X183500000Y-104180000D02*
X171830000Y-104180000D01*
X171830000Y-104180000D02*
X170760000Y-103110000D01*
X170760000Y-103110000D02*
X170760000Y-89620000D01*
X170760000Y-89620000D02*
X168580000Y-87440000D01*
X168580000Y-87440000D02*
X164960000Y-87440000D01*
X183500000Y-105450000D02*
X169030000Y-105450000D01*
X169030000Y-105450000D02*
X166950000Y-103370000D01*
X166400000Y-92240000D02*
X164960000Y-92240000D01*
X166950000Y-103370000D02*
X166950000Y-92790000D01*
X166950000Y-92790000D02*
X166400000Y-92240000D01*
X157900000Y-95610000D02*
X155710000Y-97800000D01*
X155710000Y-97800000D02*
X146600000Y-97800000D01*
X157900000Y-94800000D02*
X157900000Y-95610000D01*
X157910000Y-94490000D02*
X157910000Y-94790000D01*
X157910000Y-94790000D02*
X157900000Y-94800000D01*
X158710000Y-94490000D02*
X158710000Y-96790000D01*
X158710000Y-96790000D02*
X155820000Y-99680000D01*
X155820000Y-99680000D02*
X145810000Y-99680000D01*
X145810000Y-99680000D02*
X145330000Y-99200000D01*
X145330000Y-99200000D02*
X145330000Y-97800000D01*
X144990000Y-100700000D02*
X144060000Y-99770000D01*
X144060000Y-99770000D02*
X144060000Y-97800000D01*
X156730000Y-100700000D02*
X144990000Y-100700000D01*
X159510000Y-97920000D02*
X156730000Y-100700000D01*
X159510000Y-94490000D02*
X159510000Y-97920000D01*
X144180000Y-101670000D02*
X142790000Y-100280000D01*
X142790000Y-100280000D02*
X142790000Y-97800000D01*
X157830000Y-101670000D02*
X144180000Y-101670000D01*
X160310000Y-99190000D02*
X157830000Y-101670000D01*
X160310000Y-94490000D02*
X160310000Y-99190000D01*
X143070000Y-102710000D02*
X141520000Y-101160000D01*
X141520000Y-101160000D02*
X141520000Y-97800000D01*
X158560000Y-102710000D02*
X143070000Y-102710000D01*
X161110000Y-100160000D02*
X158560000Y-102710000D01*
X161110000Y-94490000D02*
X161110000Y-100160000D01*
X142710000Y-103670000D02*
X140250000Y-101210000D01*
X140250000Y-101210000D02*
X140250000Y-97800000D01*
X159760000Y-103670000D02*
X142710000Y-103670000D01*
X161910000Y-101520000D02*
X159760000Y-103670000D01*
X161910000Y-94490000D02*
X161910000Y-101520000D01*
X141760000Y-104590000D02*
X138980000Y-101810000D01*
X138980000Y-101810000D02*
X138980000Y-97800000D01*
X160520000Y-104590000D02*
X141760000Y-104590000D01*
X162710000Y-102400000D02*
X160520000Y-104590000D01*
X162710000Y-94490000D02*
X162710000Y-102400000D01*
X140320000Y-105380000D02*
X137710000Y-102770000D01*
X137710000Y-102770000D02*
X137710000Y-97800000D01*
X161880000Y-105380000D02*
X140320000Y-105380000D01*
X163510000Y-103750000D02*
X161880000Y-105380000D01*
X163510000Y-94490000D02*
X163510000Y-103750000D01*
D52*
X101645000Y-90705000D02*
X100990000Y-90050000D01*
X100990000Y-90050000D02*
X97750000Y-90050000D01*
X101645000Y-92500000D02*
X101645000Y-90705000D01*
D46*
X97750000Y-87150000D02*
X97750000Y-90050000D01*
D51*
X183980000Y-93160000D02*
X177087074Y-93160000D01*
X177087074Y-93160000D02*
X176898593Y-92971519D01*
D45*
X156460000Y-92240000D02*
X158450000Y-92240000D01*
X158450000Y-92240000D02*
X158550000Y-92340000D01*
D47*
X115883135Y-84528941D02*
X116433134Y-85078940D01*
X115364234Y-84010040D02*
X115883135Y-84528941D01*
X115364234Y-82225611D02*
X115364234Y-84010040D01*
X115933744Y-83644588D02*
X116483743Y-84194587D01*
X115432637Y-82978036D02*
X115432637Y-83143481D01*
X115432637Y-83143481D02*
X115933744Y-83644588D01*
X115652762Y-86403110D02*
X115672318Y-86422666D01*
X115652762Y-85493769D02*
X115652762Y-86403110D01*
X137749607Y-90607670D02*
X137749607Y-89829853D01*
X137749607Y-90790393D02*
X137749607Y-90607670D01*
X137740000Y-90800000D02*
X137749607Y-90790393D01*
D46*
X130450000Y-84750000D02*
X124180000Y-84750000D01*
X124180000Y-84750000D02*
X123760000Y-84330000D01*
D50*
X115550000Y-84600000D02*
X123490000Y-84600000D01*
X123490000Y-84600000D02*
X123760000Y-84330000D01*
D52*
X105455000Y-87100000D02*
X105455000Y-92500000D01*
X105455000Y-92500000D02*
X105455000Y-95465000D01*
X105455000Y-95465000D02*
X105740000Y-95750000D01*
X104185000Y-92500000D02*
X105455000Y-92500000D01*
D10*
G36*
X134009136Y-103629373D02*
X136670424Y-106201621D01*
X136708993Y-108120418D01*
X134347612Y-108139854D01*
X132760285Y-106846476D01*
X132799266Y-103591564D01*
X134009136Y-103629373D01*
X134009136Y-103629373D01*
G37*
X134009136Y-103629373D02*
X136670424Y-106201621D01*
X136708993Y-108120418D01*
X134347612Y-108139854D01*
X132760285Y-106846476D01*
X132799266Y-103591564D01*
X134009136Y-103629373D01*
D56*
G36*
X194500000Y-91901000D02*
X201099000Y-91901000D01*
X201099000Y-93599000D01*
X194500000Y-93599000D01*
X194155202Y-93667585D01*
X193862897Y-93862897D01*
X193667585Y-94155202D01*
X193599000Y-94500000D01*
X193599000Y-107500000D01*
X193667585Y-107844798D01*
X193862897Y-108137103D01*
X194155202Y-108332415D01*
X194500000Y-108401000D01*
X201099000Y-108401000D01*
X201099000Y-116571522D01*
X184001000Y-116543493D01*
X184001000Y-116079599D01*
X184060947Y-116019652D01*
X184148043Y-116155002D01*
X184432424Y-116349312D01*
X184769997Y-116417672D01*
X188269997Y-116417672D01*
X188585359Y-116358333D01*
X188874999Y-116171954D01*
X189069309Y-115887573D01*
X189137669Y-115550000D01*
X189137669Y-113250000D01*
X189078330Y-112934638D01*
X188891951Y-112644998D01*
X188607570Y-112450688D01*
X188269997Y-112382328D01*
X184769997Y-112382328D01*
X184454635Y-112441667D01*
X184164995Y-112628046D01*
X183970685Y-112912427D01*
X183943028Y-113049000D01*
X183769997Y-113049000D01*
X183252992Y-113151839D01*
X182814696Y-113444699D01*
X181694699Y-114564696D01*
X181401839Y-115002992D01*
X181299000Y-115519997D01*
X181299000Y-116539063D01*
X170211000Y-116520886D01*
X170211000Y-116081028D01*
X170272376Y-116019652D01*
X170359472Y-116155002D01*
X170643853Y-116349312D01*
X170981426Y-116417672D01*
X174481426Y-116417672D01*
X174796788Y-116358333D01*
X175086428Y-116171954D01*
X175280738Y-115887573D01*
X175349098Y-115550000D01*
X175349098Y-113250000D01*
X175289759Y-112934638D01*
X175103380Y-112644998D01*
X174818999Y-112450688D01*
X174481426Y-112382328D01*
X170981426Y-112382328D01*
X170666064Y-112441667D01*
X170376424Y-112628046D01*
X170182114Y-112912427D01*
X170154457Y-113049000D01*
X169981426Y-113049000D01*
X169464421Y-113151839D01*
X169026125Y-113444699D01*
X167904699Y-114566125D01*
X167611839Y-115004421D01*
X167509000Y-115521426D01*
X167509000Y-116516457D01*
X156311000Y-116498099D01*
X156311000Y-116192457D01*
X156483805Y-116019652D01*
X156570901Y-116155002D01*
X156855282Y-116349312D01*
X157192855Y-116417672D01*
X160692855Y-116417672D01*
X161008217Y-116358333D01*
X161297857Y-116171954D01*
X161492167Y-115887573D01*
X161560527Y-115550000D01*
X161560527Y-113250000D01*
X161501188Y-112934638D01*
X161314809Y-112644998D01*
X161030428Y-112450688D01*
X160692855Y-112382328D01*
X157192855Y-112382328D01*
X156877493Y-112441667D01*
X156587853Y-112628046D01*
X156393543Y-112912427D01*
X156365886Y-113049000D01*
X156192855Y-113049000D01*
X155761626Y-113134777D01*
X155675849Y-113151839D01*
X155237554Y-113444699D01*
X154004699Y-114677554D01*
X153711839Y-115115850D01*
X153609000Y-115632855D01*
X153609000Y-116493670D01*
X142381000Y-116475263D01*
X142381000Y-116129602D01*
X142615249Y-115895353D01*
X142782330Y-116155002D01*
X143066711Y-116349312D01*
X143404284Y-116417672D01*
X146904284Y-116417672D01*
X147219646Y-116358333D01*
X147509286Y-116171954D01*
X147703596Y-115887573D01*
X147771956Y-115550000D01*
X147771956Y-113250000D01*
X147712617Y-112934638D01*
X147620188Y-112791000D01*
X148087940Y-112791000D01*
X148004972Y-112912427D01*
X147936612Y-113250000D01*
X147936612Y-115550000D01*
X147995951Y-115865362D01*
X148182330Y-116155002D01*
X148466711Y-116349312D01*
X148804284Y-116417672D01*
X152304284Y-116417672D01*
X152619646Y-116358333D01*
X152909286Y-116171954D01*
X153103596Y-115887573D01*
X153171956Y-115550000D01*
X153171956Y-113250000D01*
X153112617Y-112934638D01*
X152926238Y-112644998D01*
X152641857Y-112450688D01*
X152304284Y-112382328D01*
X151677047Y-112382328D01*
X151617669Y-112083815D01*
X151368164Y-111710404D01*
X151238760Y-111581000D01*
X162213240Y-111581000D01*
X163014568Y-112382328D01*
X162592855Y-112382328D01*
X162277493Y-112441667D01*
X161987853Y-112628046D01*
X161793543Y-112912427D01*
X161725183Y-113250000D01*
X161725183Y-115550000D01*
X161784522Y-115865362D01*
X161970901Y-116155002D01*
X162255282Y-116349312D01*
X162592855Y-116417672D01*
X166092855Y-116417672D01*
X166408217Y-116358333D01*
X166697857Y-116171954D01*
X166892167Y-115887573D01*
X166960527Y-115550000D01*
X166960527Y-113250000D01*
X166901188Y-112934638D01*
X166714809Y-112644998D01*
X166430428Y-112450688D01*
X166092855Y-112382328D01*
X165493855Y-112382328D01*
X165493855Y-112082855D01*
X165406240Y-111642386D01*
X165156735Y-111268975D01*
X164208760Y-110321000D01*
X175063240Y-110321000D01*
X176980426Y-112238186D01*
X176980426Y-112382328D01*
X176381426Y-112382328D01*
X176066064Y-112441667D01*
X175776424Y-112628046D01*
X175582114Y-112912427D01*
X175513754Y-113250000D01*
X175513754Y-115550000D01*
X175573093Y-115865362D01*
X175759472Y-116155002D01*
X176043853Y-116349312D01*
X176381426Y-116417672D01*
X179881426Y-116417672D01*
X180196788Y-116358333D01*
X180486428Y-116171954D01*
X180680738Y-115887573D01*
X180749098Y-115550000D01*
X180749098Y-113250000D01*
X180689759Y-112934638D01*
X180503380Y-112644998D01*
X180218999Y-112450688D01*
X179881426Y-112382328D01*
X179282426Y-112382328D01*
X179282426Y-111761426D01*
X179258748Y-111642387D01*
X179194812Y-111320958D01*
X178945306Y-110947546D01*
X176353880Y-108356120D01*
X176346217Y-108351000D01*
X177023240Y-108351000D01*
X179626120Y-110953880D01*
X179999531Y-111203385D01*
X180440000Y-111291000D01*
X190233240Y-111291000D01*
X190768997Y-111826757D01*
X190768997Y-112382328D01*
X190169997Y-112382328D01*
X189854635Y-112441667D01*
X189564995Y-112628046D01*
X189370685Y-112912427D01*
X189302325Y-113250000D01*
X189302325Y-115550000D01*
X189361664Y-115865362D01*
X189548043Y-116155002D01*
X189832424Y-116349312D01*
X190169997Y-116417672D01*
X193669997Y-116417672D01*
X193985359Y-116358333D01*
X194274999Y-116171954D01*
X194469309Y-115887573D01*
X194537669Y-115550000D01*
X194537669Y-113250000D01*
X194478330Y-112934638D01*
X194291951Y-112644998D01*
X194007570Y-112450688D01*
X193669997Y-112382328D01*
X193070997Y-112382328D01*
X193070997Y-111349997D01*
X192983382Y-110909528D01*
X192733877Y-110536117D01*
X191523880Y-109326120D01*
X191395694Y-109240469D01*
X191150469Y-109076615D01*
X190710000Y-108989000D01*
X180916760Y-108989000D01*
X178428760Y-106501000D01*
X181533548Y-106501000D01*
X181794054Y-106675064D01*
X182301492Y-106776000D01*
X184698508Y-106776000D01*
X185205946Y-106675064D01*
X185636132Y-106387624D01*
X185923572Y-105957438D01*
X186024508Y-105450000D01*
X185923572Y-104942562D01*
X185838338Y-104815000D01*
X185923572Y-104687438D01*
X186024508Y-104180000D01*
X185923572Y-103672562D01*
X185838338Y-103545000D01*
X185923572Y-103417438D01*
X186024508Y-102910000D01*
X185923572Y-102402562D01*
X185838338Y-102275000D01*
X185923572Y-102147438D01*
X186024508Y-101640000D01*
X185923572Y-101132562D01*
X185838338Y-101005000D01*
X185923572Y-100877438D01*
X186024508Y-100370000D01*
X185923572Y-99862562D01*
X185838338Y-99735000D01*
X185923572Y-99607438D01*
X186024508Y-99100000D01*
X185923572Y-98592562D01*
X185636132Y-98162376D01*
X185205946Y-97874936D01*
X184980038Y-97830000D01*
X185205946Y-97785064D01*
X185636132Y-97497624D01*
X185923572Y-97067438D01*
X186024508Y-96560000D01*
X185923572Y-96052562D01*
X185636132Y-95622376D01*
X185205946Y-95334936D01*
X184698508Y-95234000D01*
X182582470Y-95234000D01*
X182519235Y-95170765D01*
X182398782Y-95090281D01*
X182129603Y-94910421D01*
X181670000Y-94819000D01*
X181213668Y-94819000D01*
X181173333Y-94604638D01*
X180986954Y-94314998D01*
X180907926Y-94261000D01*
X182508948Y-94261000D01*
X182608046Y-94415002D01*
X182892427Y-94609312D01*
X183230000Y-94677672D01*
X184730000Y-94677672D01*
X185045362Y-94618333D01*
X185333897Y-94432665D01*
X185592427Y-94609312D01*
X185930000Y-94677672D01*
X187430000Y-94677672D01*
X187745362Y-94618333D01*
X187912162Y-94511000D01*
X189028543Y-94511000D01*
X189172427Y-94609312D01*
X189510000Y-94677672D01*
X191010000Y-94677672D01*
X191325362Y-94618333D01*
X191615002Y-94431954D01*
X191809312Y-94147573D01*
X191877672Y-93810000D01*
X191877672Y-93011000D01*
X192260000Y-93011000D01*
X192662200Y-92930997D01*
X193003169Y-92703169D01*
X193488666Y-92217672D01*
X193630000Y-92217672D01*
X193945362Y-92158333D01*
X194235002Y-91971954D01*
X194309389Y-91863085D01*
X194500000Y-91901000D01*
X194500000Y-91901000D01*
G37*
X194500000Y-91901000D02*
X201099000Y-91901000D01*
X201099000Y-93599000D01*
X194500000Y-93599000D01*
X194155202Y-93667585D01*
X193862897Y-93862897D01*
X193667585Y-94155202D01*
X193599000Y-94500000D01*
X193599000Y-107500000D01*
X193667585Y-107844798D01*
X193862897Y-108137103D01*
X194155202Y-108332415D01*
X194500000Y-108401000D01*
X201099000Y-108401000D01*
X201099000Y-116571522D01*
X184001000Y-116543493D01*
X184001000Y-116079599D01*
X184060947Y-116019652D01*
X184148043Y-116155002D01*
X184432424Y-116349312D01*
X184769997Y-116417672D01*
X188269997Y-116417672D01*
X188585359Y-116358333D01*
X188874999Y-116171954D01*
X189069309Y-115887573D01*
X189137669Y-115550000D01*
X189137669Y-113250000D01*
X189078330Y-112934638D01*
X188891951Y-112644998D01*
X188607570Y-112450688D01*
X188269997Y-112382328D01*
X184769997Y-112382328D01*
X184454635Y-112441667D01*
X184164995Y-112628046D01*
X183970685Y-112912427D01*
X183943028Y-113049000D01*
X183769997Y-113049000D01*
X183252992Y-113151839D01*
X182814696Y-113444699D01*
X181694699Y-114564696D01*
X181401839Y-115002992D01*
X181299000Y-115519997D01*
X181299000Y-116539063D01*
X170211000Y-116520886D01*
X170211000Y-116081028D01*
X170272376Y-116019652D01*
X170359472Y-116155002D01*
X170643853Y-116349312D01*
X170981426Y-116417672D01*
X174481426Y-116417672D01*
X174796788Y-116358333D01*
X175086428Y-116171954D01*
X175280738Y-115887573D01*
X175349098Y-115550000D01*
X175349098Y-113250000D01*
X175289759Y-112934638D01*
X175103380Y-112644998D01*
X174818999Y-112450688D01*
X174481426Y-112382328D01*
X170981426Y-112382328D01*
X170666064Y-112441667D01*
X170376424Y-112628046D01*
X170182114Y-112912427D01*
X170154457Y-113049000D01*
X169981426Y-113049000D01*
X169464421Y-113151839D01*
X169026125Y-113444699D01*
X167904699Y-114566125D01*
X167611839Y-115004421D01*
X167509000Y-115521426D01*
X167509000Y-116516457D01*
X156311000Y-116498099D01*
X156311000Y-116192457D01*
X156483805Y-116019652D01*
X156570901Y-116155002D01*
X156855282Y-116349312D01*
X157192855Y-116417672D01*
X160692855Y-116417672D01*
X161008217Y-116358333D01*
X161297857Y-116171954D01*
X161492167Y-115887573D01*
X161560527Y-115550000D01*
X161560527Y-113250000D01*
X161501188Y-112934638D01*
X161314809Y-112644998D01*
X161030428Y-112450688D01*
X160692855Y-112382328D01*
X157192855Y-112382328D01*
X156877493Y-112441667D01*
X156587853Y-112628046D01*
X156393543Y-112912427D01*
X156365886Y-113049000D01*
X156192855Y-113049000D01*
X155761626Y-113134777D01*
X155675849Y-113151839D01*
X155237554Y-113444699D01*
X154004699Y-114677554D01*
X153711839Y-115115850D01*
X153609000Y-115632855D01*
X153609000Y-116493670D01*
X142381000Y-116475263D01*
X142381000Y-116129602D01*
X142615249Y-115895353D01*
X142782330Y-116155002D01*
X143066711Y-116349312D01*
X143404284Y-116417672D01*
X146904284Y-116417672D01*
X147219646Y-116358333D01*
X147509286Y-116171954D01*
X147703596Y-115887573D01*
X147771956Y-115550000D01*
X147771956Y-113250000D01*
X147712617Y-112934638D01*
X147620188Y-112791000D01*
X148087940Y-112791000D01*
X148004972Y-112912427D01*
X147936612Y-113250000D01*
X147936612Y-115550000D01*
X147995951Y-115865362D01*
X148182330Y-116155002D01*
X148466711Y-116349312D01*
X148804284Y-116417672D01*
X152304284Y-116417672D01*
X152619646Y-116358333D01*
X152909286Y-116171954D01*
X153103596Y-115887573D01*
X153171956Y-115550000D01*
X153171956Y-113250000D01*
X153112617Y-112934638D01*
X152926238Y-112644998D01*
X152641857Y-112450688D01*
X152304284Y-112382328D01*
X151677047Y-112382328D01*
X151617669Y-112083815D01*
X151368164Y-111710404D01*
X151238760Y-111581000D01*
X162213240Y-111581000D01*
X163014568Y-112382328D01*
X162592855Y-112382328D01*
X162277493Y-112441667D01*
X161987853Y-112628046D01*
X161793543Y-112912427D01*
X161725183Y-113250000D01*
X161725183Y-115550000D01*
X161784522Y-115865362D01*
X161970901Y-116155002D01*
X162255282Y-116349312D01*
X162592855Y-116417672D01*
X166092855Y-116417672D01*
X166408217Y-116358333D01*
X166697857Y-116171954D01*
X166892167Y-115887573D01*
X166960527Y-115550000D01*
X166960527Y-113250000D01*
X166901188Y-112934638D01*
X166714809Y-112644998D01*
X166430428Y-112450688D01*
X166092855Y-112382328D01*
X165493855Y-112382328D01*
X165493855Y-112082855D01*
X165406240Y-111642386D01*
X165156735Y-111268975D01*
X164208760Y-110321000D01*
X175063240Y-110321000D01*
X176980426Y-112238186D01*
X176980426Y-112382328D01*
X176381426Y-112382328D01*
X176066064Y-112441667D01*
X175776424Y-112628046D01*
X175582114Y-112912427D01*
X175513754Y-113250000D01*
X175513754Y-115550000D01*
X175573093Y-115865362D01*
X175759472Y-116155002D01*
X176043853Y-116349312D01*
X176381426Y-116417672D01*
X179881426Y-116417672D01*
X180196788Y-116358333D01*
X180486428Y-116171954D01*
X180680738Y-115887573D01*
X180749098Y-115550000D01*
X180749098Y-113250000D01*
X180689759Y-112934638D01*
X180503380Y-112644998D01*
X180218999Y-112450688D01*
X179881426Y-112382328D01*
X179282426Y-112382328D01*
X179282426Y-111761426D01*
X179258748Y-111642387D01*
X179194812Y-111320958D01*
X178945306Y-110947546D01*
X176353880Y-108356120D01*
X176346217Y-108351000D01*
X177023240Y-108351000D01*
X179626120Y-110953880D01*
X179999531Y-111203385D01*
X180440000Y-111291000D01*
X190233240Y-111291000D01*
X190768997Y-111826757D01*
X190768997Y-112382328D01*
X190169997Y-112382328D01*
X189854635Y-112441667D01*
X189564995Y-112628046D01*
X189370685Y-112912427D01*
X189302325Y-113250000D01*
X189302325Y-115550000D01*
X189361664Y-115865362D01*
X189548043Y-116155002D01*
X189832424Y-116349312D01*
X190169997Y-116417672D01*
X193669997Y-116417672D01*
X193985359Y-116358333D01*
X194274999Y-116171954D01*
X194469309Y-115887573D01*
X194537669Y-115550000D01*
X194537669Y-113250000D01*
X194478330Y-112934638D01*
X194291951Y-112644998D01*
X194007570Y-112450688D01*
X193669997Y-112382328D01*
X193070997Y-112382328D01*
X193070997Y-111349997D01*
X192983382Y-110909528D01*
X192733877Y-110536117D01*
X191523880Y-109326120D01*
X191395694Y-109240469D01*
X191150469Y-109076615D01*
X190710000Y-108989000D01*
X180916760Y-108989000D01*
X178428760Y-106501000D01*
X181533548Y-106501000D01*
X181794054Y-106675064D01*
X182301492Y-106776000D01*
X184698508Y-106776000D01*
X185205946Y-106675064D01*
X185636132Y-106387624D01*
X185923572Y-105957438D01*
X186024508Y-105450000D01*
X185923572Y-104942562D01*
X185838338Y-104815000D01*
X185923572Y-104687438D01*
X186024508Y-104180000D01*
X185923572Y-103672562D01*
X185838338Y-103545000D01*
X185923572Y-103417438D01*
X186024508Y-102910000D01*
X185923572Y-102402562D01*
X185838338Y-102275000D01*
X185923572Y-102147438D01*
X186024508Y-101640000D01*
X185923572Y-101132562D01*
X185838338Y-101005000D01*
X185923572Y-100877438D01*
X186024508Y-100370000D01*
X185923572Y-99862562D01*
X185838338Y-99735000D01*
X185923572Y-99607438D01*
X186024508Y-99100000D01*
X185923572Y-98592562D01*
X185636132Y-98162376D01*
X185205946Y-97874936D01*
X184980038Y-97830000D01*
X185205946Y-97785064D01*
X185636132Y-97497624D01*
X185923572Y-97067438D01*
X186024508Y-96560000D01*
X185923572Y-96052562D01*
X185636132Y-95622376D01*
X185205946Y-95334936D01*
X184698508Y-95234000D01*
X182582470Y-95234000D01*
X182519235Y-95170765D01*
X182398782Y-95090281D01*
X182129603Y-94910421D01*
X181670000Y-94819000D01*
X181213668Y-94819000D01*
X181173333Y-94604638D01*
X180986954Y-94314998D01*
X180907926Y-94261000D01*
X182508948Y-94261000D01*
X182608046Y-94415002D01*
X182892427Y-94609312D01*
X183230000Y-94677672D01*
X184730000Y-94677672D01*
X185045362Y-94618333D01*
X185333897Y-94432665D01*
X185592427Y-94609312D01*
X185930000Y-94677672D01*
X187430000Y-94677672D01*
X187745362Y-94618333D01*
X187912162Y-94511000D01*
X189028543Y-94511000D01*
X189172427Y-94609312D01*
X189510000Y-94677672D01*
X191010000Y-94677672D01*
X191325362Y-94618333D01*
X191615002Y-94431954D01*
X191809312Y-94147573D01*
X191877672Y-93810000D01*
X191877672Y-93011000D01*
X192260000Y-93011000D01*
X192662200Y-92930997D01*
X193003169Y-92703169D01*
X193488666Y-92217672D01*
X193630000Y-92217672D01*
X193945362Y-92158333D01*
X194235002Y-91971954D01*
X194309389Y-91863085D01*
X194500000Y-91901000D01*
G36*
X196584449Y-64382930D02*
X196149496Y-65430413D01*
X196148507Y-66564611D01*
X196581631Y-67612852D01*
X197382930Y-68415551D01*
X198430413Y-68850504D01*
X199564611Y-68851493D01*
X200612852Y-68418369D01*
X201099000Y-67933069D01*
X201099000Y-75599000D01*
X194500000Y-75599000D01*
X194155202Y-75667585D01*
X193901265Y-75837260D01*
X193893724Y-75835733D01*
X194055001Y-75731954D01*
X194249311Y-75447573D01*
X194317671Y-75110000D01*
X194317671Y-73810000D01*
X194258332Y-73494638D01*
X194071953Y-73204998D01*
X193787572Y-73010688D01*
X193679085Y-72988719D01*
X193845002Y-72881954D01*
X194039312Y-72597573D01*
X194107672Y-72260000D01*
X194107672Y-70960000D01*
X194048333Y-70644638D01*
X193861954Y-70354998D01*
X193577573Y-70160688D01*
X193240000Y-70092328D01*
X191740000Y-70092328D01*
X191424638Y-70151667D01*
X191136103Y-70337335D01*
X190877573Y-70160688D01*
X190540000Y-70092328D01*
X189040000Y-70092328D01*
X188724638Y-70151667D01*
X188526758Y-70279000D01*
X188481457Y-70279000D01*
X188337573Y-70180688D01*
X188000000Y-70112328D01*
X186500000Y-70112328D01*
X186184638Y-70171667D01*
X185894998Y-70358046D01*
X185700688Y-70642427D01*
X185632328Y-70980000D01*
X185632328Y-72280000D01*
X185691667Y-72595362D01*
X185878046Y-72885002D01*
X186162427Y-73079312D01*
X186206706Y-73088279D01*
X186051664Y-73188046D01*
X185857354Y-73472427D01*
X185788994Y-73810000D01*
X185788994Y-75110000D01*
X185848333Y-75425362D01*
X186034712Y-75715002D01*
X186134614Y-75783262D01*
X186130000Y-75782328D01*
X185370000Y-75782328D01*
X185054638Y-75841667D01*
X185003001Y-75874895D01*
X184967573Y-75850688D01*
X184630000Y-75782328D01*
X183870000Y-75782328D01*
X183554638Y-75841667D01*
X183503001Y-75874895D01*
X183467573Y-75850688D01*
X183130000Y-75782328D01*
X182370000Y-75782328D01*
X182054638Y-75841667D01*
X182003001Y-75874895D01*
X181967573Y-75850688D01*
X181630000Y-75782328D01*
X180870000Y-75782328D01*
X180811920Y-75793257D01*
X180868335Y-75756954D01*
X181062645Y-75472573D01*
X181131005Y-75135000D01*
X181131005Y-74256755D01*
X182200088Y-73187672D01*
X182840000Y-73187672D01*
X183155362Y-73128333D01*
X183445002Y-72941954D01*
X183639312Y-72657573D01*
X183707672Y-72320000D01*
X183707672Y-71020000D01*
X183648333Y-70704638D01*
X183461954Y-70414998D01*
X183177573Y-70220688D01*
X182840000Y-70152328D01*
X181340000Y-70152328D01*
X181024638Y-70211667D01*
X180736103Y-70397335D01*
X180477573Y-70220688D01*
X180140000Y-70152328D01*
X178640000Y-70152328D01*
X178324638Y-70211667D01*
X178034998Y-70398046D01*
X177952353Y-70519000D01*
X177570000Y-70519000D01*
X177129532Y-70606614D01*
X176756120Y-70856120D01*
X175906120Y-71706120D01*
X175656615Y-72079531D01*
X175569000Y-72520000D01*
X175569000Y-73131774D01*
X175364998Y-73263046D01*
X175170688Y-73547427D01*
X175102328Y-73885000D01*
X175102328Y-75135000D01*
X175161667Y-75450362D01*
X175348046Y-75740002D01*
X175599000Y-75911472D01*
X175599000Y-76270991D01*
X175570688Y-76312427D01*
X175502328Y-76650000D01*
X175502328Y-78650000D01*
X175561667Y-78965362D01*
X175599000Y-79023379D01*
X175599000Y-85799407D01*
X175562983Y-85835361D01*
X175349244Y-86350101D01*
X175348758Y-86907453D01*
X175561598Y-87422566D01*
X175955361Y-87817017D01*
X176383369Y-87994741D01*
X176545361Y-88157017D01*
X176762870Y-88247335D01*
X176810694Y-88363077D01*
X176929737Y-88482328D01*
X176370000Y-88482328D01*
X176054638Y-88541667D01*
X175764998Y-88728046D01*
X175570688Y-89012427D01*
X175502328Y-89350000D01*
X175502328Y-91350000D01*
X175561667Y-91665362D01*
X175748046Y-91955002D01*
X175858345Y-92030367D01*
X175711576Y-92176880D01*
X175497837Y-92691620D01*
X175497351Y-93248972D01*
X175710191Y-93764085D01*
X176103954Y-94158536D01*
X176618694Y-94372275D01*
X177176046Y-94372761D01*
X177446529Y-94261000D01*
X178567569Y-94261000D01*
X178509998Y-94298046D01*
X178315688Y-94582427D01*
X178247328Y-94920000D01*
X178247328Y-96420000D01*
X178306667Y-96735362D01*
X178493046Y-97025002D01*
X178777427Y-97219312D01*
X179115000Y-97287672D01*
X179149600Y-97287672D01*
X179470101Y-97420756D01*
X180027453Y-97421242D01*
X180350718Y-97287672D01*
X180365000Y-97287672D01*
X180680362Y-97228333D01*
X180691758Y-97221000D01*
X181172530Y-97221000D01*
X181192132Y-97240602D01*
X181363868Y-97497624D01*
X181794054Y-97785064D01*
X182019962Y-97830000D01*
X181794054Y-97874936D01*
X181533548Y-98049000D01*
X181475000Y-98049000D01*
X181072800Y-98129003D01*
X180731831Y-98356831D01*
X180429530Y-98659132D01*
X178521509Y-98659132D01*
X178325487Y-98184722D01*
X177931724Y-97790271D01*
X177416984Y-97576532D01*
X176859632Y-97576046D01*
X176392947Y-97768876D01*
X176392947Y-97608317D01*
X176528964Y-97472537D01*
X176742703Y-96957797D01*
X176743189Y-96400445D01*
X176530349Y-95885332D01*
X176136586Y-95490881D01*
X175621846Y-95277142D01*
X175064494Y-95276656D01*
X174549381Y-95489496D01*
X174154930Y-95883259D01*
X173941191Y-96397999D01*
X173940705Y-96955351D01*
X174153545Y-97470464D01*
X174290947Y-97608106D01*
X174290947Y-98164609D01*
X173169144Y-97042806D01*
X173169144Y-95694714D01*
X173305161Y-95558934D01*
X173518900Y-95044194D01*
X173519386Y-94486842D01*
X173306546Y-93971729D01*
X172912783Y-93577278D01*
X172398043Y-93363539D01*
X171840691Y-93363053D01*
X171811000Y-93375321D01*
X171811000Y-89620000D01*
X171730997Y-89217800D01*
X171646833Y-89091839D01*
X171503170Y-88876831D01*
X169323169Y-86696831D01*
X168982200Y-86469003D01*
X168580000Y-86389000D01*
X165968280Y-86389000D01*
X165897573Y-86340688D01*
X165560000Y-86272328D01*
X164677672Y-86272328D01*
X164677672Y-85390000D01*
X164618333Y-85074638D01*
X164511000Y-84907838D01*
X164511000Y-84174287D01*
X164434803Y-83791221D01*
X164217814Y-83466473D01*
X163702341Y-82951000D01*
X169389581Y-82951000D01*
X169525361Y-83087017D01*
X170040101Y-83300756D01*
X170597453Y-83301242D01*
X171112566Y-83088402D01*
X171507017Y-82694639D01*
X171631956Y-82393753D01*
X171641667Y-82445362D01*
X171674895Y-82496999D01*
X171650688Y-82532427D01*
X171582328Y-82870000D01*
X171582328Y-83630000D01*
X171641667Y-83945362D01*
X171674895Y-83996999D01*
X171650688Y-84032427D01*
X171582328Y-84370000D01*
X171582328Y-85130000D01*
X171641667Y-85445362D01*
X171674895Y-85496999D01*
X171650688Y-85532427D01*
X171582328Y-85870000D01*
X171582328Y-86630000D01*
X171641667Y-86945362D01*
X171674895Y-86996999D01*
X171650688Y-87032427D01*
X171582328Y-87370000D01*
X171582328Y-88130000D01*
X171641667Y-88445362D01*
X171828046Y-88735002D01*
X172112427Y-88929312D01*
X172450000Y-88997672D01*
X174450000Y-88997672D01*
X174765362Y-88938333D01*
X175055002Y-88751954D01*
X175249312Y-88467573D01*
X175317672Y-88130000D01*
X175317672Y-87370000D01*
X175258333Y-87054638D01*
X175225105Y-87003001D01*
X175249312Y-86967573D01*
X175317672Y-86630000D01*
X175317672Y-85870000D01*
X175258333Y-85554638D01*
X175225105Y-85503001D01*
X175249312Y-85467573D01*
X175317672Y-85130000D01*
X175317672Y-84370000D01*
X175258333Y-84054638D01*
X175225105Y-84003001D01*
X175249312Y-83967573D01*
X175317672Y-83630000D01*
X175317672Y-82870000D01*
X175258333Y-82554638D01*
X175225105Y-82503001D01*
X175249312Y-82467573D01*
X175317672Y-82130000D01*
X175317672Y-81370000D01*
X175258333Y-81054638D01*
X175225105Y-81003001D01*
X175249312Y-80967573D01*
X175317672Y-80630000D01*
X175317672Y-79870000D01*
X175258333Y-79554638D01*
X175225105Y-79503001D01*
X175249312Y-79467573D01*
X175317672Y-79130000D01*
X175317672Y-78370000D01*
X175258333Y-78054638D01*
X175071954Y-77764998D01*
X174787573Y-77570688D01*
X174450000Y-77502328D01*
X172450000Y-77502328D01*
X172134638Y-77561667D01*
X171844998Y-77748046D01*
X171650688Y-78032427D01*
X171582328Y-78370000D01*
X171582328Y-79130000D01*
X171635946Y-79414956D01*
X171254639Y-79032983D01*
X170739899Y-78819244D01*
X170182547Y-78818758D01*
X169667434Y-79031598D01*
X169529792Y-79169000D01*
X160067685Y-79169000D01*
X159665485Y-79249003D01*
X159324516Y-79476831D01*
X157227936Y-81573411D01*
X157000108Y-81914380D01*
X156920105Y-82316580D01*
X156920105Y-83213767D01*
X156911000Y-83204662D01*
X156911000Y-72159029D01*
X157266458Y-72396538D01*
X157860000Y-72514601D01*
X158453542Y-72396538D01*
X158860000Y-72124952D01*
X159266458Y-72396538D01*
X159860000Y-72514601D01*
X160453542Y-72396538D01*
X160860000Y-72124952D01*
X161266458Y-72396538D01*
X161860000Y-72514601D01*
X162453542Y-72396538D01*
X162956723Y-72060324D01*
X163292937Y-71557143D01*
X163411000Y-70963601D01*
X163411000Y-70776399D01*
X163292937Y-70182857D01*
X163211000Y-70060229D01*
X163211000Y-69679771D01*
X163292937Y-69557143D01*
X163411000Y-68963601D01*
X163411000Y-68776399D01*
X163292937Y-68182857D01*
X162956723Y-67679676D01*
X162453542Y-67343462D01*
X161860000Y-67225399D01*
X161266458Y-67343462D01*
X160860000Y-67615048D01*
X160453542Y-67343462D01*
X159860000Y-67225399D01*
X159266458Y-67343462D01*
X158860000Y-67615048D01*
X158453542Y-67343462D01*
X157860000Y-67225399D01*
X157266458Y-67343462D01*
X156860000Y-67615048D01*
X156453542Y-67343462D01*
X155860000Y-67225399D01*
X155266458Y-67343462D01*
X154860000Y-67615048D01*
X154453542Y-67343462D01*
X153860000Y-67225399D01*
X153266458Y-67343462D01*
X152860000Y-67615048D01*
X152453542Y-67343462D01*
X151860000Y-67225399D01*
X151266458Y-67343462D01*
X150860000Y-67615048D01*
X150453542Y-67343462D01*
X149860000Y-67225399D01*
X149266458Y-67343462D01*
X148860000Y-67615048D01*
X148453542Y-67343462D01*
X147860000Y-67225399D01*
X147266458Y-67343462D01*
X146860000Y-67615048D01*
X146453542Y-67343462D01*
X145860000Y-67225399D01*
X145266458Y-67343462D01*
X144763277Y-67679676D01*
X144427063Y-68182857D01*
X144309000Y-68776399D01*
X144309000Y-68963601D01*
X144369748Y-69269000D01*
X138520000Y-69269000D01*
X137907324Y-69390869D01*
X137387922Y-69737922D01*
X134307922Y-72817922D01*
X133960869Y-73337324D01*
X133839000Y-73950000D01*
X133839000Y-82632328D01*
X133540000Y-82632328D01*
X133224638Y-82691667D01*
X132934998Y-82878046D01*
X132740688Y-83162427D01*
X132672328Y-83500000D01*
X132672328Y-85500000D01*
X132731667Y-85815362D01*
X132918046Y-86105002D01*
X133202427Y-86299312D01*
X133540000Y-86367672D01*
X133989000Y-86367672D01*
X133989000Y-89318543D01*
X133890688Y-89462427D01*
X133822328Y-89800000D01*
X133822328Y-91800000D01*
X133839000Y-91888605D01*
X133839000Y-93096844D01*
X132666844Y-94269000D01*
X125997672Y-94269000D01*
X125997672Y-94120000D01*
X125938333Y-93804638D01*
X125751954Y-93514998D01*
X125467573Y-93320688D01*
X125130000Y-93252328D01*
X123530000Y-93252328D01*
X123214638Y-93311667D01*
X122924998Y-93498046D01*
X122730688Y-93782427D01*
X122662328Y-94120000D01*
X122662328Y-97620000D01*
X122721667Y-97935362D01*
X122908046Y-98225002D01*
X123192427Y-98419312D01*
X123530000Y-98487672D01*
X125130000Y-98487672D01*
X125445362Y-98428333D01*
X125735002Y-98241954D01*
X125929312Y-97957573D01*
X125997672Y-97620000D01*
X125997672Y-97471000D01*
X128827328Y-97471000D01*
X128827328Y-98510000D01*
X128886667Y-98825362D01*
X129073046Y-99115002D01*
X129357427Y-99309312D01*
X129695000Y-99377672D01*
X130945000Y-99377672D01*
X131260362Y-99318333D01*
X131550002Y-99131954D01*
X131744312Y-98847573D01*
X131812672Y-98510000D01*
X131812672Y-97471000D01*
X133330000Y-97471000D01*
X133942676Y-97349131D01*
X134462078Y-97002078D01*
X136103156Y-95361000D01*
X144590000Y-95361000D01*
X144759520Y-95327280D01*
X145266120Y-95833880D01*
X145413458Y-95932328D01*
X145030000Y-95932328D01*
X144714638Y-95991667D01*
X144699050Y-96001697D01*
X144697573Y-96000688D01*
X144360000Y-95932328D01*
X143760000Y-95932328D01*
X143444638Y-95991667D01*
X143429050Y-96001697D01*
X143427573Y-96000688D01*
X143090000Y-95932328D01*
X142490000Y-95932328D01*
X142174638Y-95991667D01*
X142159050Y-96001697D01*
X142157573Y-96000688D01*
X141820000Y-95932328D01*
X141220000Y-95932328D01*
X140904638Y-95991667D01*
X140889050Y-96001697D01*
X140887573Y-96000688D01*
X140550000Y-95932328D01*
X139950000Y-95932328D01*
X139634638Y-95991667D01*
X139619050Y-96001697D01*
X139617573Y-96000688D01*
X139280000Y-95932328D01*
X138680000Y-95932328D01*
X138364638Y-95991667D01*
X138349050Y-96001697D01*
X138347573Y-96000688D01*
X138010000Y-95932328D01*
X137410000Y-95932328D01*
X137094638Y-95991667D01*
X136804998Y-96178046D01*
X136610688Y-96462427D01*
X136542328Y-96800000D01*
X136542328Y-98800000D01*
X136601667Y-99115362D01*
X136659000Y-99204460D01*
X136659000Y-102770000D01*
X136739003Y-103172200D01*
X136966831Y-103513169D01*
X138785989Y-105332328D01*
X138680000Y-105332328D01*
X138364638Y-105391667D01*
X138349050Y-105401697D01*
X138347573Y-105400688D01*
X138010000Y-105332328D01*
X137410000Y-105332328D01*
X137123302Y-105386274D01*
X134660196Y-103005577D01*
X134646954Y-102984998D01*
X134362573Y-102790688D01*
X134025000Y-102722328D01*
X133829798Y-102722328D01*
X132830540Y-102691101D01*
X132783696Y-102679667D01*
X132450214Y-102733552D01*
X132163970Y-102912935D01*
X131970068Y-103189549D01*
X131899061Y-103519809D01*
X131859061Y-106859809D01*
X131958128Y-107268609D01*
X132172446Y-107529725D01*
X132797465Y-108039000D01*
X96900000Y-108039000D01*
X96459531Y-108126615D01*
X96185076Y-108310000D01*
X96086120Y-108376120D01*
X94586120Y-109876120D01*
X94336615Y-110249531D01*
X94249000Y-110690000D01*
X94249000Y-112382328D01*
X93650000Y-112382328D01*
X93334638Y-112441667D01*
X93044998Y-112628046D01*
X92850688Y-112912427D01*
X92782328Y-113250000D01*
X92782328Y-115550000D01*
X92841667Y-115865362D01*
X93028046Y-116155002D01*
X93312427Y-116349312D01*
X93539004Y-116395195D01*
X91883877Y-116392482D01*
X92065362Y-116358333D01*
X92355002Y-116171954D01*
X92549312Y-115887573D01*
X92617672Y-115550000D01*
X92617672Y-113250000D01*
X92558333Y-112934638D01*
X92371954Y-112644998D01*
X92087573Y-112450688D01*
X91750000Y-112382328D01*
X88250000Y-112382328D01*
X88101000Y-112410364D01*
X88101000Y-103451000D01*
X100170000Y-103451000D01*
X100687005Y-103348161D01*
X101125301Y-103055301D01*
X102695301Y-101485301D01*
X102988161Y-101047006D01*
X103016772Y-100903169D01*
X103091000Y-100530000D01*
X103091000Y-97385400D01*
X103345002Y-97221954D01*
X103539312Y-96937573D01*
X103607672Y-96600000D01*
X103607672Y-95510088D01*
X103728880Y-95388880D01*
X103774904Y-95320000D01*
X103872328Y-95174195D01*
X103872328Y-96600000D01*
X103931667Y-96915362D01*
X104118046Y-97205002D01*
X104402427Y-97399312D01*
X104740000Y-97467672D01*
X106740000Y-97467672D01*
X107055362Y-97408333D01*
X107345002Y-97221954D01*
X107539312Y-96937573D01*
X107607672Y-96600000D01*
X107607672Y-94900000D01*
X107548333Y-94584638D01*
X107361954Y-94294998D01*
X107077573Y-94100688D01*
X106740000Y-94032328D01*
X106606000Y-94032328D01*
X106606000Y-93357329D01*
X106622672Y-93275000D01*
X106622672Y-91725000D01*
X106606000Y-91636395D01*
X106606000Y-87957329D01*
X106622672Y-87875000D01*
X106622672Y-86325000D01*
X106563333Y-86009638D01*
X106396903Y-85751000D01*
X108970328Y-85751000D01*
X108970328Y-87600000D01*
X109029667Y-87915362D01*
X109216046Y-88205002D01*
X109500427Y-88399312D01*
X109549000Y-88409148D01*
X109549000Y-89782328D01*
X109200000Y-89782328D01*
X108884638Y-89841667D01*
X108594998Y-90028046D01*
X108400688Y-90312427D01*
X108332328Y-90650000D01*
X108332328Y-92950000D01*
X108391667Y-93265362D01*
X108578046Y-93555002D01*
X108862427Y-93749312D01*
X109200000Y-93817672D01*
X112700000Y-93817672D01*
X113015362Y-93758333D01*
X113305002Y-93571954D01*
X113499312Y-93287573D01*
X113567672Y-92950000D01*
X113567672Y-90650000D01*
X113508333Y-90334638D01*
X113321954Y-90044998D01*
X113037573Y-89850688D01*
X112751000Y-89792656D01*
X112751000Y-88413293D01*
X112777362Y-88408333D01*
X113067002Y-88221954D01*
X113261312Y-87937573D01*
X113329672Y-87600000D01*
X113329672Y-81600000D01*
X113370328Y-81600000D01*
X113370328Y-87600000D01*
X113429667Y-87915362D01*
X113616046Y-88205002D01*
X113900427Y-88399312D01*
X114238000Y-88467672D01*
X116862000Y-88467672D01*
X117177362Y-88408333D01*
X117467002Y-88221954D01*
X117661312Y-87937573D01*
X117729672Y-87600000D01*
X117729672Y-86451000D01*
X121665096Y-86451000D01*
X121701667Y-86645362D01*
X121888046Y-86935002D01*
X122172427Y-87129312D01*
X122510000Y-87197672D01*
X125010000Y-87197672D01*
X125325362Y-87138333D01*
X125615002Y-86951954D01*
X125809312Y-86667573D01*
X125877672Y-86330000D01*
X125877672Y-86101000D01*
X129200471Y-86101000D01*
X129203046Y-86105002D01*
X129487427Y-86299312D01*
X129825000Y-86367672D01*
X131075000Y-86367672D01*
X131390362Y-86308333D01*
X131680002Y-86121954D01*
X131874312Y-85837573D01*
X131942672Y-85500000D01*
X131942672Y-84000000D01*
X131883333Y-83684638D01*
X131696954Y-83394998D01*
X131412573Y-83200688D01*
X131075000Y-83132328D01*
X129825000Y-83132328D01*
X129509638Y-83191667D01*
X129219998Y-83378046D01*
X129205681Y-83399000D01*
X125877672Y-83399000D01*
X125877672Y-82330000D01*
X125818333Y-82014638D01*
X125631954Y-81724998D01*
X125347573Y-81530688D01*
X125010000Y-81462328D01*
X122510000Y-81462328D01*
X122194638Y-81521667D01*
X121904998Y-81708046D01*
X121710688Y-81992427D01*
X121642328Y-82330000D01*
X121642328Y-82749000D01*
X117729672Y-82749000D01*
X117729672Y-81600000D01*
X117670333Y-81284638D01*
X117483954Y-80994998D01*
X117199573Y-80800688D01*
X116862000Y-80732328D01*
X114238000Y-80732328D01*
X113922638Y-80791667D01*
X113632998Y-80978046D01*
X113438688Y-81262427D01*
X113370328Y-81600000D01*
X113329672Y-81600000D01*
X113270333Y-81284638D01*
X113083954Y-80994998D01*
X112799573Y-80800688D01*
X112462000Y-80732328D01*
X109838000Y-80732328D01*
X109522638Y-80791667D01*
X109232998Y-80978046D01*
X109038688Y-81262427D01*
X108970328Y-81600000D01*
X108970328Y-83449000D01*
X105630000Y-83449000D01*
X105189532Y-83536614D01*
X105102567Y-83594722D01*
X105058333Y-83359638D01*
X104871954Y-83069998D01*
X104587573Y-82875688D01*
X104250000Y-82807328D01*
X102750000Y-82807328D01*
X102434638Y-82866667D01*
X102144998Y-83053046D01*
X101950688Y-83337427D01*
X101882328Y-83675000D01*
X101882328Y-84398566D01*
X101851615Y-84444531D01*
X101764000Y-84885000D01*
X101764000Y-86242671D01*
X101747328Y-86325000D01*
X101747328Y-87875000D01*
X101806667Y-88190362D01*
X101993046Y-88480002D01*
X102277427Y-88674312D01*
X102615000Y-88742672D01*
X103215000Y-88742672D01*
X103530362Y-88683333D01*
X103545950Y-88673303D01*
X103547427Y-88674312D01*
X103885000Y-88742672D01*
X104304000Y-88742672D01*
X104304000Y-90857328D01*
X103885000Y-90857328D01*
X103569638Y-90916667D01*
X103554050Y-90926697D01*
X103552573Y-90925688D01*
X103215000Y-90857328D01*
X102796000Y-90857328D01*
X102796000Y-90705000D01*
X102708385Y-90264531D01*
X102458880Y-89891120D01*
X101803880Y-89236120D01*
X101747859Y-89198688D01*
X101430469Y-88986615D01*
X100990000Y-88899000D01*
X99153226Y-88899000D01*
X99101000Y-88817838D01*
X99101000Y-88381457D01*
X99199312Y-88237573D01*
X99267672Y-87900000D01*
X99267672Y-86400000D01*
X99208333Y-86084638D01*
X99021954Y-85794998D01*
X98737573Y-85600688D01*
X98400000Y-85532328D01*
X97100000Y-85532328D01*
X96784638Y-85591667D01*
X96494998Y-85778046D01*
X96300688Y-86062427D01*
X96232328Y-86400000D01*
X96232328Y-87900000D01*
X96291667Y-88215362D01*
X96399000Y-88382162D01*
X96399000Y-88818543D01*
X96300688Y-88962427D01*
X96232328Y-89300000D01*
X96232328Y-90800000D01*
X96291667Y-91115362D01*
X96477335Y-91403897D01*
X96300688Y-91662427D01*
X96232328Y-92000000D01*
X96232328Y-93500000D01*
X96291667Y-93815362D01*
X96348865Y-93904251D01*
X96348758Y-94027453D01*
X96561598Y-94542566D01*
X96955361Y-94937017D01*
X97470101Y-95150756D01*
X98027453Y-95151242D01*
X98542566Y-94938402D01*
X98937017Y-94544639D01*
X99150756Y-94029899D01*
X99150862Y-93908482D01*
X99199312Y-93837573D01*
X99267672Y-93500000D01*
X99267672Y-92000000D01*
X99208333Y-91684638D01*
X99022665Y-91396103D01*
X99155974Y-91201000D01*
X100494000Y-91201000D01*
X100494000Y-91642671D01*
X100477328Y-91725000D01*
X100477328Y-93275000D01*
X100536667Y-93590362D01*
X100723046Y-93880002D01*
X100945982Y-94032328D01*
X100740000Y-94032328D01*
X100424638Y-94091667D01*
X100134998Y-94278046D01*
X99940688Y-94562427D01*
X99872328Y-94900000D01*
X99872328Y-96600000D01*
X99931667Y-96915362D01*
X100118046Y-97205002D01*
X100389000Y-97390138D01*
X100389000Y-99970398D01*
X99610398Y-100749000D01*
X88101000Y-100749000D01*
X88101000Y-98392672D01*
X88650000Y-98392672D01*
X88965362Y-98333333D01*
X89255002Y-98146954D01*
X89449312Y-97862573D01*
X89517672Y-97525000D01*
X89517672Y-96275000D01*
X89458333Y-95959638D01*
X89271954Y-95669998D01*
X88987573Y-95475688D01*
X88650000Y-95407328D01*
X88101000Y-95407328D01*
X88101000Y-92017484D01*
X88415362Y-91958333D01*
X88705002Y-91771954D01*
X88899312Y-91487573D01*
X88967672Y-91150000D01*
X88967672Y-88650000D01*
X88908333Y-88334638D01*
X88721954Y-88044998D01*
X88437573Y-87850688D01*
X88101000Y-87782531D01*
X88101000Y-83398668D01*
X88315362Y-83358333D01*
X88605002Y-83171954D01*
X88799312Y-82887573D01*
X88867672Y-82550000D01*
X88867672Y-80250000D01*
X89032328Y-80250000D01*
X89032328Y-82550000D01*
X89091667Y-82865362D01*
X89278046Y-83155002D01*
X89562427Y-83349312D01*
X89900000Y-83417672D01*
X93400000Y-83417672D01*
X93715362Y-83358333D01*
X94005002Y-83171954D01*
X94121810Y-83001000D01*
X100550000Y-83001000D01*
X101162676Y-82879131D01*
X101682078Y-82532078D01*
X104296484Y-79917672D01*
X106500000Y-79917672D01*
X106815362Y-79858333D01*
X107105002Y-79671954D01*
X107299312Y-79387573D01*
X107347219Y-79151000D01*
X113330000Y-79151000D01*
X114038347Y-79010101D01*
X114638855Y-78608855D01*
X118018855Y-75228855D01*
X118420101Y-74628347D01*
X118561001Y-73920000D01*
X118561000Y-73919995D01*
X118561000Y-70434878D01*
X118651071Y-70300077D01*
X118811000Y-69496059D01*
X118811000Y-68903941D01*
X118651071Y-68099923D01*
X118195631Y-67418310D01*
X117514018Y-66962870D01*
X116710000Y-66802941D01*
X115905982Y-66962870D01*
X115224369Y-67418310D01*
X114768929Y-68099923D01*
X114609000Y-68903941D01*
X114609000Y-69496059D01*
X114768929Y-70300077D01*
X114859000Y-70434878D01*
X114859000Y-73153290D01*
X112563290Y-75449000D01*
X107348668Y-75449000D01*
X107308333Y-75234638D01*
X107121954Y-74944998D01*
X106837573Y-74750688D01*
X106500000Y-74682328D01*
X103000000Y-74682328D01*
X102684638Y-74741667D01*
X102394998Y-74928046D01*
X102200688Y-75212427D01*
X102132328Y-75550000D01*
X102132328Y-77553516D01*
X99886844Y-79799000D01*
X94121052Y-79799000D01*
X94021954Y-79644998D01*
X93737573Y-79450688D01*
X93400000Y-79382328D01*
X89900000Y-79382328D01*
X89584638Y-79441667D01*
X89294998Y-79628046D01*
X89100688Y-79912427D01*
X89032328Y-80250000D01*
X88867672Y-80250000D01*
X88808333Y-79934638D01*
X88621954Y-79644998D01*
X88337573Y-79450688D01*
X88000000Y-79382328D01*
X84500000Y-79382328D01*
X84184638Y-79441667D01*
X83894998Y-79628046D01*
X83700688Y-79912427D01*
X83632328Y-80250000D01*
X83632328Y-82550000D01*
X83691667Y-82865362D01*
X83878046Y-83155002D01*
X84162427Y-83349312D01*
X84399000Y-83397219D01*
X84399000Y-87782328D01*
X83600000Y-87782328D01*
X83284638Y-87841667D01*
X82994998Y-88028046D01*
X82800688Y-88312427D01*
X82732328Y-88650000D01*
X82732328Y-91150000D01*
X82791667Y-91465362D01*
X82978046Y-91755002D01*
X83262427Y-91949312D01*
X83600000Y-92017672D01*
X84399000Y-92017672D01*
X84399000Y-113140248D01*
X84207922Y-113267922D01*
X83697922Y-113777922D01*
X83350869Y-114297324D01*
X83229000Y-114910000D01*
X83229000Y-116378293D01*
X80901000Y-116374477D01*
X80901000Y-67564611D01*
X81148507Y-67564611D01*
X81581631Y-68612852D01*
X82382930Y-69415551D01*
X83430413Y-69850504D01*
X84564611Y-69851493D01*
X85612852Y-69418369D01*
X86415551Y-68617070D01*
X86850504Y-67569587D01*
X86851493Y-66435389D01*
X86418369Y-65387148D01*
X85617070Y-64584449D01*
X84569587Y-64149496D01*
X83435389Y-64148507D01*
X82387148Y-64581631D01*
X81584449Y-65382930D01*
X81149496Y-66430413D01*
X81148507Y-67564611D01*
X80901000Y-67564611D01*
X80901000Y-63901000D01*
X197067221Y-63901000D01*
X196584449Y-64382930D01*
X196584449Y-64382930D01*
G37*
X196584449Y-64382930D02*
X196149496Y-65430413D01*
X196148507Y-66564611D01*
X196581631Y-67612852D01*
X197382930Y-68415551D01*
X198430413Y-68850504D01*
X199564611Y-68851493D01*
X200612852Y-68418369D01*
X201099000Y-67933069D01*
X201099000Y-75599000D01*
X194500000Y-75599000D01*
X194155202Y-75667585D01*
X193901265Y-75837260D01*
X193893724Y-75835733D01*
X194055001Y-75731954D01*
X194249311Y-75447573D01*
X194317671Y-75110000D01*
X194317671Y-73810000D01*
X194258332Y-73494638D01*
X194071953Y-73204998D01*
X193787572Y-73010688D01*
X193679085Y-72988719D01*
X193845002Y-72881954D01*
X194039312Y-72597573D01*
X194107672Y-72260000D01*
X194107672Y-70960000D01*
X194048333Y-70644638D01*
X193861954Y-70354998D01*
X193577573Y-70160688D01*
X193240000Y-70092328D01*
X191740000Y-70092328D01*
X191424638Y-70151667D01*
X191136103Y-70337335D01*
X190877573Y-70160688D01*
X190540000Y-70092328D01*
X189040000Y-70092328D01*
X188724638Y-70151667D01*
X188526758Y-70279000D01*
X188481457Y-70279000D01*
X188337573Y-70180688D01*
X188000000Y-70112328D01*
X186500000Y-70112328D01*
X186184638Y-70171667D01*
X185894998Y-70358046D01*
X185700688Y-70642427D01*
X185632328Y-70980000D01*
X185632328Y-72280000D01*
X185691667Y-72595362D01*
X185878046Y-72885002D01*
X186162427Y-73079312D01*
X186206706Y-73088279D01*
X186051664Y-73188046D01*
X185857354Y-73472427D01*
X185788994Y-73810000D01*
X185788994Y-75110000D01*
X185848333Y-75425362D01*
X186034712Y-75715002D01*
X186134614Y-75783262D01*
X186130000Y-75782328D01*
X185370000Y-75782328D01*
X185054638Y-75841667D01*
X185003001Y-75874895D01*
X184967573Y-75850688D01*
X184630000Y-75782328D01*
X183870000Y-75782328D01*
X183554638Y-75841667D01*
X183503001Y-75874895D01*
X183467573Y-75850688D01*
X183130000Y-75782328D01*
X182370000Y-75782328D01*
X182054638Y-75841667D01*
X182003001Y-75874895D01*
X181967573Y-75850688D01*
X181630000Y-75782328D01*
X180870000Y-75782328D01*
X180811920Y-75793257D01*
X180868335Y-75756954D01*
X181062645Y-75472573D01*
X181131005Y-75135000D01*
X181131005Y-74256755D01*
X182200088Y-73187672D01*
X182840000Y-73187672D01*
X183155362Y-73128333D01*
X183445002Y-72941954D01*
X183639312Y-72657573D01*
X183707672Y-72320000D01*
X183707672Y-71020000D01*
X183648333Y-70704638D01*
X183461954Y-70414998D01*
X183177573Y-70220688D01*
X182840000Y-70152328D01*
X181340000Y-70152328D01*
X181024638Y-70211667D01*
X180736103Y-70397335D01*
X180477573Y-70220688D01*
X180140000Y-70152328D01*
X178640000Y-70152328D01*
X178324638Y-70211667D01*
X178034998Y-70398046D01*
X177952353Y-70519000D01*
X177570000Y-70519000D01*
X177129532Y-70606614D01*
X176756120Y-70856120D01*
X175906120Y-71706120D01*
X175656615Y-72079531D01*
X175569000Y-72520000D01*
X175569000Y-73131774D01*
X175364998Y-73263046D01*
X175170688Y-73547427D01*
X175102328Y-73885000D01*
X175102328Y-75135000D01*
X175161667Y-75450362D01*
X175348046Y-75740002D01*
X175599000Y-75911472D01*
X175599000Y-76270991D01*
X175570688Y-76312427D01*
X175502328Y-76650000D01*
X175502328Y-78650000D01*
X175561667Y-78965362D01*
X175599000Y-79023379D01*
X175599000Y-85799407D01*
X175562983Y-85835361D01*
X175349244Y-86350101D01*
X175348758Y-86907453D01*
X175561598Y-87422566D01*
X175955361Y-87817017D01*
X176383369Y-87994741D01*
X176545361Y-88157017D01*
X176762870Y-88247335D01*
X176810694Y-88363077D01*
X176929737Y-88482328D01*
X176370000Y-88482328D01*
X176054638Y-88541667D01*
X175764998Y-88728046D01*
X175570688Y-89012427D01*
X175502328Y-89350000D01*
X175502328Y-91350000D01*
X175561667Y-91665362D01*
X175748046Y-91955002D01*
X175858345Y-92030367D01*
X175711576Y-92176880D01*
X175497837Y-92691620D01*
X175497351Y-93248972D01*
X175710191Y-93764085D01*
X176103954Y-94158536D01*
X176618694Y-94372275D01*
X177176046Y-94372761D01*
X177446529Y-94261000D01*
X178567569Y-94261000D01*
X178509998Y-94298046D01*
X178315688Y-94582427D01*
X178247328Y-94920000D01*
X178247328Y-96420000D01*
X178306667Y-96735362D01*
X178493046Y-97025002D01*
X178777427Y-97219312D01*
X179115000Y-97287672D01*
X179149600Y-97287672D01*
X179470101Y-97420756D01*
X180027453Y-97421242D01*
X180350718Y-97287672D01*
X180365000Y-97287672D01*
X180680362Y-97228333D01*
X180691758Y-97221000D01*
X181172530Y-97221000D01*
X181192132Y-97240602D01*
X181363868Y-97497624D01*
X181794054Y-97785064D01*
X182019962Y-97830000D01*
X181794054Y-97874936D01*
X181533548Y-98049000D01*
X181475000Y-98049000D01*
X181072800Y-98129003D01*
X180731831Y-98356831D01*
X180429530Y-98659132D01*
X178521509Y-98659132D01*
X178325487Y-98184722D01*
X177931724Y-97790271D01*
X177416984Y-97576532D01*
X176859632Y-97576046D01*
X176392947Y-97768876D01*
X176392947Y-97608317D01*
X176528964Y-97472537D01*
X176742703Y-96957797D01*
X176743189Y-96400445D01*
X176530349Y-95885332D01*
X176136586Y-95490881D01*
X175621846Y-95277142D01*
X175064494Y-95276656D01*
X174549381Y-95489496D01*
X174154930Y-95883259D01*
X173941191Y-96397999D01*
X173940705Y-96955351D01*
X174153545Y-97470464D01*
X174290947Y-97608106D01*
X174290947Y-98164609D01*
X173169144Y-97042806D01*
X173169144Y-95694714D01*
X173305161Y-95558934D01*
X173518900Y-95044194D01*
X173519386Y-94486842D01*
X173306546Y-93971729D01*
X172912783Y-93577278D01*
X172398043Y-93363539D01*
X171840691Y-93363053D01*
X171811000Y-93375321D01*
X171811000Y-89620000D01*
X171730997Y-89217800D01*
X171646833Y-89091839D01*
X171503170Y-88876831D01*
X169323169Y-86696831D01*
X168982200Y-86469003D01*
X168580000Y-86389000D01*
X165968280Y-86389000D01*
X165897573Y-86340688D01*
X165560000Y-86272328D01*
X164677672Y-86272328D01*
X164677672Y-85390000D01*
X164618333Y-85074638D01*
X164511000Y-84907838D01*
X164511000Y-84174287D01*
X164434803Y-83791221D01*
X164217814Y-83466473D01*
X163702341Y-82951000D01*
X169389581Y-82951000D01*
X169525361Y-83087017D01*
X170040101Y-83300756D01*
X170597453Y-83301242D01*
X171112566Y-83088402D01*
X171507017Y-82694639D01*
X171631956Y-82393753D01*
X171641667Y-82445362D01*
X171674895Y-82496999D01*
X171650688Y-82532427D01*
X171582328Y-82870000D01*
X171582328Y-83630000D01*
X171641667Y-83945362D01*
X171674895Y-83996999D01*
X171650688Y-84032427D01*
X171582328Y-84370000D01*
X171582328Y-85130000D01*
X171641667Y-85445362D01*
X171674895Y-85496999D01*
X171650688Y-85532427D01*
X171582328Y-85870000D01*
X171582328Y-86630000D01*
X171641667Y-86945362D01*
X171674895Y-86996999D01*
X171650688Y-87032427D01*
X171582328Y-87370000D01*
X171582328Y-88130000D01*
X171641667Y-88445362D01*
X171828046Y-88735002D01*
X172112427Y-88929312D01*
X172450000Y-88997672D01*
X174450000Y-88997672D01*
X174765362Y-88938333D01*
X175055002Y-88751954D01*
X175249312Y-88467573D01*
X175317672Y-88130000D01*
X175317672Y-87370000D01*
X175258333Y-87054638D01*
X175225105Y-87003001D01*
X175249312Y-86967573D01*
X175317672Y-86630000D01*
X175317672Y-85870000D01*
X175258333Y-85554638D01*
X175225105Y-85503001D01*
X175249312Y-85467573D01*
X175317672Y-85130000D01*
X175317672Y-84370000D01*
X175258333Y-84054638D01*
X175225105Y-84003001D01*
X175249312Y-83967573D01*
X175317672Y-83630000D01*
X175317672Y-82870000D01*
X175258333Y-82554638D01*
X175225105Y-82503001D01*
X175249312Y-82467573D01*
X175317672Y-82130000D01*
X175317672Y-81370000D01*
X175258333Y-81054638D01*
X175225105Y-81003001D01*
X175249312Y-80967573D01*
X175317672Y-80630000D01*
X175317672Y-79870000D01*
X175258333Y-79554638D01*
X175225105Y-79503001D01*
X175249312Y-79467573D01*
X175317672Y-79130000D01*
X175317672Y-78370000D01*
X175258333Y-78054638D01*
X175071954Y-77764998D01*
X174787573Y-77570688D01*
X174450000Y-77502328D01*
X172450000Y-77502328D01*
X172134638Y-77561667D01*
X171844998Y-77748046D01*
X171650688Y-78032427D01*
X171582328Y-78370000D01*
X171582328Y-79130000D01*
X171635946Y-79414956D01*
X171254639Y-79032983D01*
X170739899Y-78819244D01*
X170182547Y-78818758D01*
X169667434Y-79031598D01*
X169529792Y-79169000D01*
X160067685Y-79169000D01*
X159665485Y-79249003D01*
X159324516Y-79476831D01*
X157227936Y-81573411D01*
X157000108Y-81914380D01*
X156920105Y-82316580D01*
X156920105Y-83213767D01*
X156911000Y-83204662D01*
X156911000Y-72159029D01*
X157266458Y-72396538D01*
X157860000Y-72514601D01*
X158453542Y-72396538D01*
X158860000Y-72124952D01*
X159266458Y-72396538D01*
X159860000Y-72514601D01*
X160453542Y-72396538D01*
X160860000Y-72124952D01*
X161266458Y-72396538D01*
X161860000Y-72514601D01*
X162453542Y-72396538D01*
X162956723Y-72060324D01*
X163292937Y-71557143D01*
X163411000Y-70963601D01*
X163411000Y-70776399D01*
X163292937Y-70182857D01*
X163211000Y-70060229D01*
X163211000Y-69679771D01*
X163292937Y-69557143D01*
X163411000Y-68963601D01*
X163411000Y-68776399D01*
X163292937Y-68182857D01*
X162956723Y-67679676D01*
X162453542Y-67343462D01*
X161860000Y-67225399D01*
X161266458Y-67343462D01*
X160860000Y-67615048D01*
X160453542Y-67343462D01*
X159860000Y-67225399D01*
X159266458Y-67343462D01*
X158860000Y-67615048D01*
X158453542Y-67343462D01*
X157860000Y-67225399D01*
X157266458Y-67343462D01*
X156860000Y-67615048D01*
X156453542Y-67343462D01*
X155860000Y-67225399D01*
X155266458Y-67343462D01*
X154860000Y-67615048D01*
X154453542Y-67343462D01*
X153860000Y-67225399D01*
X153266458Y-67343462D01*
X152860000Y-67615048D01*
X152453542Y-67343462D01*
X151860000Y-67225399D01*
X151266458Y-67343462D01*
X150860000Y-67615048D01*
X150453542Y-67343462D01*
X149860000Y-67225399D01*
X149266458Y-67343462D01*
X148860000Y-67615048D01*
X148453542Y-67343462D01*
X147860000Y-67225399D01*
X147266458Y-67343462D01*
X146860000Y-67615048D01*
X146453542Y-67343462D01*
X145860000Y-67225399D01*
X145266458Y-67343462D01*
X144763277Y-67679676D01*
X144427063Y-68182857D01*
X144309000Y-68776399D01*
X144309000Y-68963601D01*
X144369748Y-69269000D01*
X138520000Y-69269000D01*
X137907324Y-69390869D01*
X137387922Y-69737922D01*
X134307922Y-72817922D01*
X133960869Y-73337324D01*
X133839000Y-73950000D01*
X133839000Y-82632328D01*
X133540000Y-82632328D01*
X133224638Y-82691667D01*
X132934998Y-82878046D01*
X132740688Y-83162427D01*
X132672328Y-83500000D01*
X132672328Y-85500000D01*
X132731667Y-85815362D01*
X132918046Y-86105002D01*
X133202427Y-86299312D01*
X133540000Y-86367672D01*
X133989000Y-86367672D01*
X133989000Y-89318543D01*
X133890688Y-89462427D01*
X133822328Y-89800000D01*
X133822328Y-91800000D01*
X133839000Y-91888605D01*
X133839000Y-93096844D01*
X132666844Y-94269000D01*
X125997672Y-94269000D01*
X125997672Y-94120000D01*
X125938333Y-93804638D01*
X125751954Y-93514998D01*
X125467573Y-93320688D01*
X125130000Y-93252328D01*
X123530000Y-93252328D01*
X123214638Y-93311667D01*
X122924998Y-93498046D01*
X122730688Y-93782427D01*
X122662328Y-94120000D01*
X122662328Y-97620000D01*
X122721667Y-97935362D01*
X122908046Y-98225002D01*
X123192427Y-98419312D01*
X123530000Y-98487672D01*
X125130000Y-98487672D01*
X125445362Y-98428333D01*
X125735002Y-98241954D01*
X125929312Y-97957573D01*
X125997672Y-97620000D01*
X125997672Y-97471000D01*
X128827328Y-97471000D01*
X128827328Y-98510000D01*
X128886667Y-98825362D01*
X129073046Y-99115002D01*
X129357427Y-99309312D01*
X129695000Y-99377672D01*
X130945000Y-99377672D01*
X131260362Y-99318333D01*
X131550002Y-99131954D01*
X131744312Y-98847573D01*
X131812672Y-98510000D01*
X131812672Y-97471000D01*
X133330000Y-97471000D01*
X133942676Y-97349131D01*
X134462078Y-97002078D01*
X136103156Y-95361000D01*
X144590000Y-95361000D01*
X144759520Y-95327280D01*
X145266120Y-95833880D01*
X145413458Y-95932328D01*
X145030000Y-95932328D01*
X144714638Y-95991667D01*
X144699050Y-96001697D01*
X144697573Y-96000688D01*
X144360000Y-95932328D01*
X143760000Y-95932328D01*
X143444638Y-95991667D01*
X143429050Y-96001697D01*
X143427573Y-96000688D01*
X143090000Y-95932328D01*
X142490000Y-95932328D01*
X142174638Y-95991667D01*
X142159050Y-96001697D01*
X142157573Y-96000688D01*
X141820000Y-95932328D01*
X141220000Y-95932328D01*
X140904638Y-95991667D01*
X140889050Y-96001697D01*
X140887573Y-96000688D01*
X140550000Y-95932328D01*
X139950000Y-95932328D01*
X139634638Y-95991667D01*
X139619050Y-96001697D01*
X139617573Y-96000688D01*
X139280000Y-95932328D01*
X138680000Y-95932328D01*
X138364638Y-95991667D01*
X138349050Y-96001697D01*
X138347573Y-96000688D01*
X138010000Y-95932328D01*
X137410000Y-95932328D01*
X137094638Y-95991667D01*
X136804998Y-96178046D01*
X136610688Y-96462427D01*
X136542328Y-96800000D01*
X136542328Y-98800000D01*
X136601667Y-99115362D01*
X136659000Y-99204460D01*
X136659000Y-102770000D01*
X136739003Y-103172200D01*
X136966831Y-103513169D01*
X138785989Y-105332328D01*
X138680000Y-105332328D01*
X138364638Y-105391667D01*
X138349050Y-105401697D01*
X138347573Y-105400688D01*
X138010000Y-105332328D01*
X137410000Y-105332328D01*
X137123302Y-105386274D01*
X134660196Y-103005577D01*
X134646954Y-102984998D01*
X134362573Y-102790688D01*
X134025000Y-102722328D01*
X133829798Y-102722328D01*
X132830540Y-102691101D01*
X132783696Y-102679667D01*
X132450214Y-102733552D01*
X132163970Y-102912935D01*
X131970068Y-103189549D01*
X131899061Y-103519809D01*
X131859061Y-106859809D01*
X131958128Y-107268609D01*
X132172446Y-107529725D01*
X132797465Y-108039000D01*
X96900000Y-108039000D01*
X96459531Y-108126615D01*
X96185076Y-108310000D01*
X96086120Y-108376120D01*
X94586120Y-109876120D01*
X94336615Y-110249531D01*
X94249000Y-110690000D01*
X94249000Y-112382328D01*
X93650000Y-112382328D01*
X93334638Y-112441667D01*
X93044998Y-112628046D01*
X92850688Y-112912427D01*
X92782328Y-113250000D01*
X92782328Y-115550000D01*
X92841667Y-115865362D01*
X93028046Y-116155002D01*
X93312427Y-116349312D01*
X93539004Y-116395195D01*
X91883877Y-116392482D01*
X92065362Y-116358333D01*
X92355002Y-116171954D01*
X92549312Y-115887573D01*
X92617672Y-115550000D01*
X92617672Y-113250000D01*
X92558333Y-112934638D01*
X92371954Y-112644998D01*
X92087573Y-112450688D01*
X91750000Y-112382328D01*
X88250000Y-112382328D01*
X88101000Y-112410364D01*
X88101000Y-103451000D01*
X100170000Y-103451000D01*
X100687005Y-103348161D01*
X101125301Y-103055301D01*
X102695301Y-101485301D01*
X102988161Y-101047006D01*
X103016772Y-100903169D01*
X103091000Y-100530000D01*
X103091000Y-97385400D01*
X103345002Y-97221954D01*
X103539312Y-96937573D01*
X103607672Y-96600000D01*
X103607672Y-95510088D01*
X103728880Y-95388880D01*
X103774904Y-95320000D01*
X103872328Y-95174195D01*
X103872328Y-96600000D01*
X103931667Y-96915362D01*
X104118046Y-97205002D01*
X104402427Y-97399312D01*
X104740000Y-97467672D01*
X106740000Y-97467672D01*
X107055362Y-97408333D01*
X107345002Y-97221954D01*
X107539312Y-96937573D01*
X107607672Y-96600000D01*
X107607672Y-94900000D01*
X107548333Y-94584638D01*
X107361954Y-94294998D01*
X107077573Y-94100688D01*
X106740000Y-94032328D01*
X106606000Y-94032328D01*
X106606000Y-93357329D01*
X106622672Y-93275000D01*
X106622672Y-91725000D01*
X106606000Y-91636395D01*
X106606000Y-87957329D01*
X106622672Y-87875000D01*
X106622672Y-86325000D01*
X106563333Y-86009638D01*
X106396903Y-85751000D01*
X108970328Y-85751000D01*
X108970328Y-87600000D01*
X109029667Y-87915362D01*
X109216046Y-88205002D01*
X109500427Y-88399312D01*
X109549000Y-88409148D01*
X109549000Y-89782328D01*
X109200000Y-89782328D01*
X108884638Y-89841667D01*
X108594998Y-90028046D01*
X108400688Y-90312427D01*
X108332328Y-90650000D01*
X108332328Y-92950000D01*
X108391667Y-93265362D01*
X108578046Y-93555002D01*
X108862427Y-93749312D01*
X109200000Y-93817672D01*
X112700000Y-93817672D01*
X113015362Y-93758333D01*
X113305002Y-93571954D01*
X113499312Y-93287573D01*
X113567672Y-92950000D01*
X113567672Y-90650000D01*
X113508333Y-90334638D01*
X113321954Y-90044998D01*
X113037573Y-89850688D01*
X112751000Y-89792656D01*
X112751000Y-88413293D01*
X112777362Y-88408333D01*
X113067002Y-88221954D01*
X113261312Y-87937573D01*
X113329672Y-87600000D01*
X113329672Y-81600000D01*
X113370328Y-81600000D01*
X113370328Y-87600000D01*
X113429667Y-87915362D01*
X113616046Y-88205002D01*
X113900427Y-88399312D01*
X114238000Y-88467672D01*
X116862000Y-88467672D01*
X117177362Y-88408333D01*
X117467002Y-88221954D01*
X117661312Y-87937573D01*
X117729672Y-87600000D01*
X117729672Y-86451000D01*
X121665096Y-86451000D01*
X121701667Y-86645362D01*
X121888046Y-86935002D01*
X122172427Y-87129312D01*
X122510000Y-87197672D01*
X125010000Y-87197672D01*
X125325362Y-87138333D01*
X125615002Y-86951954D01*
X125809312Y-86667573D01*
X125877672Y-86330000D01*
X125877672Y-86101000D01*
X129200471Y-86101000D01*
X129203046Y-86105002D01*
X129487427Y-86299312D01*
X129825000Y-86367672D01*
X131075000Y-86367672D01*
X131390362Y-86308333D01*
X131680002Y-86121954D01*
X131874312Y-85837573D01*
X131942672Y-85500000D01*
X131942672Y-84000000D01*
X131883333Y-83684638D01*
X131696954Y-83394998D01*
X131412573Y-83200688D01*
X131075000Y-83132328D01*
X129825000Y-83132328D01*
X129509638Y-83191667D01*
X129219998Y-83378046D01*
X129205681Y-83399000D01*
X125877672Y-83399000D01*
X125877672Y-82330000D01*
X125818333Y-82014638D01*
X125631954Y-81724998D01*
X125347573Y-81530688D01*
X125010000Y-81462328D01*
X122510000Y-81462328D01*
X122194638Y-81521667D01*
X121904998Y-81708046D01*
X121710688Y-81992427D01*
X121642328Y-82330000D01*
X121642328Y-82749000D01*
X117729672Y-82749000D01*
X117729672Y-81600000D01*
X117670333Y-81284638D01*
X117483954Y-80994998D01*
X117199573Y-80800688D01*
X116862000Y-80732328D01*
X114238000Y-80732328D01*
X113922638Y-80791667D01*
X113632998Y-80978046D01*
X113438688Y-81262427D01*
X113370328Y-81600000D01*
X113329672Y-81600000D01*
X113270333Y-81284638D01*
X113083954Y-80994998D01*
X112799573Y-80800688D01*
X112462000Y-80732328D01*
X109838000Y-80732328D01*
X109522638Y-80791667D01*
X109232998Y-80978046D01*
X109038688Y-81262427D01*
X108970328Y-81600000D01*
X108970328Y-83449000D01*
X105630000Y-83449000D01*
X105189532Y-83536614D01*
X105102567Y-83594722D01*
X105058333Y-83359638D01*
X104871954Y-83069998D01*
X104587573Y-82875688D01*
X104250000Y-82807328D01*
X102750000Y-82807328D01*
X102434638Y-82866667D01*
X102144998Y-83053046D01*
X101950688Y-83337427D01*
X101882328Y-83675000D01*
X101882328Y-84398566D01*
X101851615Y-84444531D01*
X101764000Y-84885000D01*
X101764000Y-86242671D01*
X101747328Y-86325000D01*
X101747328Y-87875000D01*
X101806667Y-88190362D01*
X101993046Y-88480002D01*
X102277427Y-88674312D01*
X102615000Y-88742672D01*
X103215000Y-88742672D01*
X103530362Y-88683333D01*
X103545950Y-88673303D01*
X103547427Y-88674312D01*
X103885000Y-88742672D01*
X104304000Y-88742672D01*
X104304000Y-90857328D01*
X103885000Y-90857328D01*
X103569638Y-90916667D01*
X103554050Y-90926697D01*
X103552573Y-90925688D01*
X103215000Y-90857328D01*
X102796000Y-90857328D01*
X102796000Y-90705000D01*
X102708385Y-90264531D01*
X102458880Y-89891120D01*
X101803880Y-89236120D01*
X101747859Y-89198688D01*
X101430469Y-88986615D01*
X100990000Y-88899000D01*
X99153226Y-88899000D01*
X99101000Y-88817838D01*
X99101000Y-88381457D01*
X99199312Y-88237573D01*
X99267672Y-87900000D01*
X99267672Y-86400000D01*
X99208333Y-86084638D01*
X99021954Y-85794998D01*
X98737573Y-85600688D01*
X98400000Y-85532328D01*
X97100000Y-85532328D01*
X96784638Y-85591667D01*
X96494998Y-85778046D01*
X96300688Y-86062427D01*
X96232328Y-86400000D01*
X96232328Y-87900000D01*
X96291667Y-88215362D01*
X96399000Y-88382162D01*
X96399000Y-88818543D01*
X96300688Y-88962427D01*
X96232328Y-89300000D01*
X96232328Y-90800000D01*
X96291667Y-91115362D01*
X96477335Y-91403897D01*
X96300688Y-91662427D01*
X96232328Y-92000000D01*
X96232328Y-93500000D01*
X96291667Y-93815362D01*
X96348865Y-93904251D01*
X96348758Y-94027453D01*
X96561598Y-94542566D01*
X96955361Y-94937017D01*
X97470101Y-95150756D01*
X98027453Y-95151242D01*
X98542566Y-94938402D01*
X98937017Y-94544639D01*
X99150756Y-94029899D01*
X99150862Y-93908482D01*
X99199312Y-93837573D01*
X99267672Y-93500000D01*
X99267672Y-92000000D01*
X99208333Y-91684638D01*
X99022665Y-91396103D01*
X99155974Y-91201000D01*
X100494000Y-91201000D01*
X100494000Y-91642671D01*
X100477328Y-91725000D01*
X100477328Y-93275000D01*
X100536667Y-93590362D01*
X100723046Y-93880002D01*
X100945982Y-94032328D01*
X100740000Y-94032328D01*
X100424638Y-94091667D01*
X100134998Y-94278046D01*
X99940688Y-94562427D01*
X99872328Y-94900000D01*
X99872328Y-96600000D01*
X99931667Y-96915362D01*
X100118046Y-97205002D01*
X100389000Y-97390138D01*
X100389000Y-99970398D01*
X99610398Y-100749000D01*
X88101000Y-100749000D01*
X88101000Y-98392672D01*
X88650000Y-98392672D01*
X88965362Y-98333333D01*
X89255002Y-98146954D01*
X89449312Y-97862573D01*
X89517672Y-97525000D01*
X89517672Y-96275000D01*
X89458333Y-95959638D01*
X89271954Y-95669998D01*
X88987573Y-95475688D01*
X88650000Y-95407328D01*
X88101000Y-95407328D01*
X88101000Y-92017484D01*
X88415362Y-91958333D01*
X88705002Y-91771954D01*
X88899312Y-91487573D01*
X88967672Y-91150000D01*
X88967672Y-88650000D01*
X88908333Y-88334638D01*
X88721954Y-88044998D01*
X88437573Y-87850688D01*
X88101000Y-87782531D01*
X88101000Y-83398668D01*
X88315362Y-83358333D01*
X88605002Y-83171954D01*
X88799312Y-82887573D01*
X88867672Y-82550000D01*
X88867672Y-80250000D01*
X89032328Y-80250000D01*
X89032328Y-82550000D01*
X89091667Y-82865362D01*
X89278046Y-83155002D01*
X89562427Y-83349312D01*
X89900000Y-83417672D01*
X93400000Y-83417672D01*
X93715362Y-83358333D01*
X94005002Y-83171954D01*
X94121810Y-83001000D01*
X100550000Y-83001000D01*
X101162676Y-82879131D01*
X101682078Y-82532078D01*
X104296484Y-79917672D01*
X106500000Y-79917672D01*
X106815362Y-79858333D01*
X107105002Y-79671954D01*
X107299312Y-79387573D01*
X107347219Y-79151000D01*
X113330000Y-79151000D01*
X114038347Y-79010101D01*
X114638855Y-78608855D01*
X118018855Y-75228855D01*
X118420101Y-74628347D01*
X118561001Y-73920000D01*
X118561000Y-73919995D01*
X118561000Y-70434878D01*
X118651071Y-70300077D01*
X118811000Y-69496059D01*
X118811000Y-68903941D01*
X118651071Y-68099923D01*
X118195631Y-67418310D01*
X117514018Y-66962870D01*
X116710000Y-66802941D01*
X115905982Y-66962870D01*
X115224369Y-67418310D01*
X114768929Y-68099923D01*
X114609000Y-68903941D01*
X114609000Y-69496059D01*
X114768929Y-70300077D01*
X114859000Y-70434878D01*
X114859000Y-73153290D01*
X112563290Y-75449000D01*
X107348668Y-75449000D01*
X107308333Y-75234638D01*
X107121954Y-74944998D01*
X106837573Y-74750688D01*
X106500000Y-74682328D01*
X103000000Y-74682328D01*
X102684638Y-74741667D01*
X102394998Y-74928046D01*
X102200688Y-75212427D01*
X102132328Y-75550000D01*
X102132328Y-77553516D01*
X99886844Y-79799000D01*
X94121052Y-79799000D01*
X94021954Y-79644998D01*
X93737573Y-79450688D01*
X93400000Y-79382328D01*
X89900000Y-79382328D01*
X89584638Y-79441667D01*
X89294998Y-79628046D01*
X89100688Y-79912427D01*
X89032328Y-80250000D01*
X88867672Y-80250000D01*
X88808333Y-79934638D01*
X88621954Y-79644998D01*
X88337573Y-79450688D01*
X88000000Y-79382328D01*
X84500000Y-79382328D01*
X84184638Y-79441667D01*
X83894998Y-79628046D01*
X83700688Y-79912427D01*
X83632328Y-80250000D01*
X83632328Y-82550000D01*
X83691667Y-82865362D01*
X83878046Y-83155002D01*
X84162427Y-83349312D01*
X84399000Y-83397219D01*
X84399000Y-87782328D01*
X83600000Y-87782328D01*
X83284638Y-87841667D01*
X82994998Y-88028046D01*
X82800688Y-88312427D01*
X82732328Y-88650000D01*
X82732328Y-91150000D01*
X82791667Y-91465362D01*
X82978046Y-91755002D01*
X83262427Y-91949312D01*
X83600000Y-92017672D01*
X84399000Y-92017672D01*
X84399000Y-113140248D01*
X84207922Y-113267922D01*
X83697922Y-113777922D01*
X83350869Y-114297324D01*
X83229000Y-114910000D01*
X83229000Y-116378293D01*
X80901000Y-116374477D01*
X80901000Y-67564611D01*
X81148507Y-67564611D01*
X81581631Y-68612852D01*
X82382930Y-69415551D01*
X83430413Y-69850504D01*
X84564611Y-69851493D01*
X85612852Y-69418369D01*
X86415551Y-68617070D01*
X86850504Y-67569587D01*
X86851493Y-66435389D01*
X86418369Y-65387148D01*
X85617070Y-64584449D01*
X84569587Y-64149496D01*
X83435389Y-64148507D01*
X82387148Y-64581631D01*
X81584449Y-65382930D01*
X81149496Y-66430413D01*
X81148507Y-67564611D01*
X80901000Y-67564611D01*
X80901000Y-63901000D01*
X197067221Y-63901000D01*
X196584449Y-64382930D01*
G36*
X165899000Y-103370000D02*
X165979003Y-103772200D01*
X166206831Y-104113169D01*
X168142662Y-106049000D01*
X162697338Y-106049000D01*
X164253169Y-104493169D01*
X164480997Y-104152200D01*
X164561000Y-103750000D01*
X164561000Y-95786178D01*
X164661891Y-95828072D01*
X165219243Y-95828558D01*
X165734356Y-95615718D01*
X165899000Y-95451361D01*
X165899000Y-103370000D01*
X165899000Y-103370000D01*
G37*
X165899000Y-103370000D02*
X165979003Y-103772200D01*
X166206831Y-104113169D01*
X168142662Y-106049000D01*
X162697338Y-106049000D01*
X164253169Y-104493169D01*
X164480997Y-104152200D01*
X164561000Y-103750000D01*
X164561000Y-95786178D01*
X164661891Y-95828072D01*
X165219243Y-95828558D01*
X165734356Y-95615718D01*
X165899000Y-95451361D01*
X165899000Y-103370000D01*
G36*
X144509000Y-74175001D02*
X144370688Y-74377427D01*
X144302328Y-74715000D01*
X144302328Y-75965000D01*
X144361667Y-76280362D01*
X144548046Y-76570002D01*
X144773326Y-76723930D01*
X144760688Y-76742427D01*
X144692328Y-77080000D01*
X144692328Y-78680000D01*
X144751667Y-78995362D01*
X144938046Y-79285002D01*
X145222427Y-79479312D01*
X145560000Y-79547672D01*
X147560000Y-79547672D01*
X147875362Y-79488333D01*
X148165002Y-79301954D01*
X148213483Y-79231000D01*
X148350226Y-79231000D01*
X148342328Y-79270000D01*
X148342328Y-80329000D01*
X145478000Y-80329000D01*
X145075800Y-80409003D01*
X144734831Y-80636831D01*
X144136831Y-81234831D01*
X143909003Y-81575800D01*
X143895233Y-81645029D01*
X143813933Y-81661200D01*
X143241975Y-82043371D01*
X142859804Y-82615329D01*
X142725604Y-83290000D01*
X142859804Y-83964671D01*
X143241975Y-84536629D01*
X143813933Y-84918800D01*
X144488604Y-85053000D01*
X145271396Y-85053000D01*
X145946067Y-84918800D01*
X146518025Y-84536629D01*
X146900196Y-83964671D01*
X147034396Y-83290000D01*
X146900196Y-82615329D01*
X146777031Y-82431000D01*
X151144662Y-82431000D01*
X151302328Y-82588666D01*
X151302328Y-83470000D01*
X151361667Y-83785362D01*
X151399000Y-83843379D01*
X151399000Y-84135132D01*
X151325688Y-84242427D01*
X151257328Y-84580000D01*
X151257328Y-86080000D01*
X151316667Y-86395362D01*
X151503046Y-86685002D01*
X151787427Y-86879312D01*
X152125000Y-86947672D01*
X153119072Y-86947672D01*
X153118758Y-87307453D01*
X153331598Y-87822566D01*
X153686633Y-88178222D01*
X153590000Y-88159000D01*
X151352672Y-88159000D01*
X151352672Y-87080000D01*
X151293333Y-86764638D01*
X151106954Y-86474998D01*
X150822573Y-86280688D01*
X150485000Y-86212328D01*
X149235000Y-86212328D01*
X148919638Y-86271667D01*
X148629998Y-86458046D01*
X148435688Y-86742427D01*
X148367328Y-87080000D01*
X148367328Y-88580000D01*
X148426667Y-88895362D01*
X148613046Y-89185002D01*
X148897427Y-89379312D01*
X149030935Y-89406348D01*
X149152186Y-89587814D01*
X149432186Y-89867814D01*
X149756934Y-90084803D01*
X150140000Y-90161000D01*
X150812328Y-90161000D01*
X150812328Y-90965000D01*
X150871667Y-91280362D01*
X151058046Y-91570002D01*
X151342427Y-91764312D01*
X151357055Y-91767274D01*
X151342328Y-91840000D01*
X151342328Y-93440000D01*
X151401667Y-93755362D01*
X151474791Y-93869000D01*
X146556760Y-93869000D01*
X146427371Y-93739611D01*
X146481000Y-93470000D01*
X146481000Y-93386139D01*
X146546980Y-93054436D01*
X146546980Y-92572665D01*
X146747002Y-92443954D01*
X146941312Y-92159573D01*
X147009672Y-91822000D01*
X147009672Y-89998000D01*
X146950333Y-89682638D01*
X146763954Y-89392998D01*
X146697699Y-89347728D01*
X146900196Y-89044671D01*
X147034396Y-88370000D01*
X146900196Y-87695329D01*
X146518025Y-87123371D01*
X145946067Y-86741200D01*
X145271396Y-86607000D01*
X144488604Y-86607000D01*
X143813933Y-86741200D01*
X143241975Y-87123371D01*
X142859804Y-87695329D01*
X142725604Y-88370000D01*
X142859804Y-89044671D01*
X143060708Y-89345345D01*
X143012998Y-89376046D01*
X142818688Y-89660427D01*
X142750328Y-89998000D01*
X142750328Y-91822000D01*
X142809667Y-92137362D01*
X142823591Y-92159000D01*
X139274671Y-92159000D01*
X139289312Y-92137573D01*
X139357672Y-91800000D01*
X139357672Y-89800000D01*
X139298333Y-89484638D01*
X139180772Y-89301943D01*
X139181242Y-88762547D01*
X138968402Y-88247434D01*
X138574639Y-87852983D01*
X138059899Y-87639244D01*
X137502547Y-87638758D01*
X136987434Y-87851598D01*
X136891000Y-87947864D01*
X136891000Y-86367672D01*
X137340000Y-86367672D01*
X137655362Y-86308333D01*
X137945002Y-86121954D01*
X138139312Y-85837573D01*
X138207672Y-85500000D01*
X138207672Y-83500000D01*
X138148333Y-83184638D01*
X137961954Y-82894998D01*
X137677573Y-82700688D01*
X137340000Y-82632328D01*
X137041000Y-82632328D01*
X137041000Y-74613156D01*
X139183156Y-72471000D01*
X144509000Y-72471000D01*
X144509000Y-74175001D01*
X144509000Y-74175001D01*
G37*
X144509000Y-74175001D02*
X144370688Y-74377427D01*
X144302328Y-74715000D01*
X144302328Y-75965000D01*
X144361667Y-76280362D01*
X144548046Y-76570002D01*
X144773326Y-76723930D01*
X144760688Y-76742427D01*
X144692328Y-77080000D01*
X144692328Y-78680000D01*
X144751667Y-78995362D01*
X144938046Y-79285002D01*
X145222427Y-79479312D01*
X145560000Y-79547672D01*
X147560000Y-79547672D01*
X147875362Y-79488333D01*
X148165002Y-79301954D01*
X148213483Y-79231000D01*
X148350226Y-79231000D01*
X148342328Y-79270000D01*
X148342328Y-80329000D01*
X145478000Y-80329000D01*
X145075800Y-80409003D01*
X144734831Y-80636831D01*
X144136831Y-81234831D01*
X143909003Y-81575800D01*
X143895233Y-81645029D01*
X143813933Y-81661200D01*
X143241975Y-82043371D01*
X142859804Y-82615329D01*
X142725604Y-83290000D01*
X142859804Y-83964671D01*
X143241975Y-84536629D01*
X143813933Y-84918800D01*
X144488604Y-85053000D01*
X145271396Y-85053000D01*
X145946067Y-84918800D01*
X146518025Y-84536629D01*
X146900196Y-83964671D01*
X147034396Y-83290000D01*
X146900196Y-82615329D01*
X146777031Y-82431000D01*
X151144662Y-82431000D01*
X151302328Y-82588666D01*
X151302328Y-83470000D01*
X151361667Y-83785362D01*
X151399000Y-83843379D01*
X151399000Y-84135132D01*
X151325688Y-84242427D01*
X151257328Y-84580000D01*
X151257328Y-86080000D01*
X151316667Y-86395362D01*
X151503046Y-86685002D01*
X151787427Y-86879312D01*
X152125000Y-86947672D01*
X153119072Y-86947672D01*
X153118758Y-87307453D01*
X153331598Y-87822566D01*
X153686633Y-88178222D01*
X153590000Y-88159000D01*
X151352672Y-88159000D01*
X151352672Y-87080000D01*
X151293333Y-86764638D01*
X151106954Y-86474998D01*
X150822573Y-86280688D01*
X150485000Y-86212328D01*
X149235000Y-86212328D01*
X148919638Y-86271667D01*
X148629998Y-86458046D01*
X148435688Y-86742427D01*
X148367328Y-87080000D01*
X148367328Y-88580000D01*
X148426667Y-88895362D01*
X148613046Y-89185002D01*
X148897427Y-89379312D01*
X149030935Y-89406348D01*
X149152186Y-89587814D01*
X149432186Y-89867814D01*
X149756934Y-90084803D01*
X150140000Y-90161000D01*
X150812328Y-90161000D01*
X150812328Y-90965000D01*
X150871667Y-91280362D01*
X151058046Y-91570002D01*
X151342427Y-91764312D01*
X151357055Y-91767274D01*
X151342328Y-91840000D01*
X151342328Y-93440000D01*
X151401667Y-93755362D01*
X151474791Y-93869000D01*
X146556760Y-93869000D01*
X146427371Y-93739611D01*
X146481000Y-93470000D01*
X146481000Y-93386139D01*
X146546980Y-93054436D01*
X146546980Y-92572665D01*
X146747002Y-92443954D01*
X146941312Y-92159573D01*
X147009672Y-91822000D01*
X147009672Y-89998000D01*
X146950333Y-89682638D01*
X146763954Y-89392998D01*
X146697699Y-89347728D01*
X146900196Y-89044671D01*
X147034396Y-88370000D01*
X146900196Y-87695329D01*
X146518025Y-87123371D01*
X145946067Y-86741200D01*
X145271396Y-86607000D01*
X144488604Y-86607000D01*
X143813933Y-86741200D01*
X143241975Y-87123371D01*
X142859804Y-87695329D01*
X142725604Y-88370000D01*
X142859804Y-89044671D01*
X143060708Y-89345345D01*
X143012998Y-89376046D01*
X142818688Y-89660427D01*
X142750328Y-89998000D01*
X142750328Y-91822000D01*
X142809667Y-92137362D01*
X142823591Y-92159000D01*
X139274671Y-92159000D01*
X139289312Y-92137573D01*
X139357672Y-91800000D01*
X139357672Y-89800000D01*
X139298333Y-89484638D01*
X139180772Y-89301943D01*
X139181242Y-88762547D01*
X138968402Y-88247434D01*
X138574639Y-87852983D01*
X138059899Y-87639244D01*
X137502547Y-87638758D01*
X136987434Y-87851598D01*
X136891000Y-87947864D01*
X136891000Y-86367672D01*
X137340000Y-86367672D01*
X137655362Y-86308333D01*
X137945002Y-86121954D01*
X138139312Y-85837573D01*
X138207672Y-85500000D01*
X138207672Y-83500000D01*
X138148333Y-83184638D01*
X137961954Y-82894998D01*
X137677573Y-82700688D01*
X137340000Y-82632328D01*
X137041000Y-82632328D01*
X137041000Y-74613156D01*
X139183156Y-72471000D01*
X144509000Y-72471000D01*
X144509000Y-74175001D01*
M02*
